SplineFontDB: 3.0
FontName: Topmarks-Bold
FullName: Topmarks Bold
FamilyName: Topmarks
Weight: Medium
Copyright: Copyright (c) 2012-13 by vernon adams.
Version: 
ItalicAngle: 0
UnderlinePosition: 0
UnderlineWidth: 0
Ascent: 1638
Descent: 410
UFOAscent: 1560
UFODescent: -656
LayerCount: 2
Layer: 0 0 "Back"  1
Layer: 1 0 "Fore"  0
OS2Version: 0
OS2_WeightWidthSlopeOnly: 0
OS2_UseTypoMetrics: 0
CreationTime: 1377811834
ModificationTime: 1377811834
PfmFamily: 0
TTFWeight: 700
TTFWidth: 5
LineGap: 0
VLineGap: 0
OS2TypoAscent: 1968
OS2TypoAOffset: 0
OS2TypoDescent: -656
OS2TypoDOffset: 0
OS2TypoLinegap: 0
OS2WinAscent: 1968
OS2WinAOffset: 0
OS2WinDescent: 656
OS2WinDOffset: 0
HheadAscent: 0
HheadAOffset: 1
HheadDescent: 0
HheadDOffset: 1
OS2Vendor: 'newt'
Lookup: 258 0 0 "'kern' Horizontal Kerning in Latin lookup 0"  {"'kern' Horizontal Kerning in Latin lookup 0 subtable"  } ['kern' ('latn' <'dflt' > ) ]
Lookup: 258 0 0 "kernHorizontalKerninginLatinloo"  {"kernHorizontalKerninginLatinloo subtable"  } ['kern' ('latn' <'dflt' > ) ]
Lookup: 258 0 0 "pos_pair_kernlatn_0"  {"pos_pair_kernlatn_0 kerning class 0"  "pos_pair_kernlatn_0 per glyph data 1"  } ['kern' ('latn' <'dflt' > ) ]
DEI: 91125
KernClass2: 16 21 "pos_pair_kernlatn_0 kerning class 0" 
 89 A Aacute Abreve Acircumflex Adieresis Agrave Amacron Aogonek Aring Atilde uni0200 uni0202
 1 D
 1 F
 14 G Gcommaaccent
 1 K
 1 L
 1 P
 44 R Racute Rcaron Rcommaaccent uni0210 uni0212
 9 T uni021A
 1 V
 1 W
 18 Y Yacute Ydieresis
 24 c cacute ccaron ccedilla
 60 o oacute ocircumflex odieresis ograve otilde uni020D uni020F
 37 r rcaron rcommaaccent uni0211 uni0213
 89 A Aacute Abreve Acircumflex Adieresis Agrave Amacron Aogonek Aring Atilde uni0200 uni0202
 24 C Cacute Ccaron Ccedilla
 14 G Gcommaaccent
 60 O Oacute Ocircumflex Odieresis Ograve Otilde uni020C uni020E
 9 T uni021A
 1 V
 1 W
 18 Y Yacute Ydieresis

StartChar: A
Encoding: 65 65 1
Width: 1381
VWidth: 0
GlyphClass: 2
Flags: W
LayerCount: 2
Fore
SplineSet
491 553 m 1
 885 553 l 1
 821 774 755 992 689 1211 c 1
 623 992 557 772 491 553 c 1
37 0 m 1
 575 1560 l 1
 815 1560 l 1
 1344 0 l 1
 1059 0 l 1
 950 355 l 1
 424 355 l 1
 311 0 l 1
 37 0 l 1
EndSplineSet
EndChar

StartChar: AE
Encoding: 198 198 2
Width: 2059
VWidth: 0
GlyphClass: 2
Flags: W
LayerCount: 2
Fore
SplineSet
599 562 m 1
 1069 562 l 1
 1009 1262 l 1
 995 1262 l 1
 599 562 l 1
18 0 m 1
 851 1456 l 1
 1904 1456 l 1
 1904 1262 l 1
 1258 1262 l 1
 1296 821 l 1
 1863 821 l 1
 1863 648 l 1
 1318 648 l 1
 1358 184 l 1
 1927 184 l 1
 1927 0 l 1
 1119 0 l 1
 1088 378 l 1
 519 378 l 1
 306 0 l 1
 18 0 l 1
EndSplineSet
EndChar

StartChar: B
Encoding: 66 66 12
Width: 1423
VWidth: 0
GlyphClass: 2
Flags: W
LayerCount: 2
Fore
SplineSet
428 905 m 1
 682 905 l 2
 912 905 1008 990 1008 1156 c 0
 1008 1299 908 1356 668 1356 c 2
 428 1356 l 1
 428 905 l 1
428 209 m 1
 729 209 l 2
 968 209 1069 285 1069 462 c 0
 1069 630 962 717 713 717 c 2
 428 717 l 1
 428 209 l 1
178 0 m 1
 178 1560 l 1
 657 1560 l 2
 1066 1560 1257 1450 1257 1187 c 0
 1257 994 1177 889 999 838 c 1
 1223 800 1322 683 1322 454 c 0
 1322 140 1134 0 726 0 c 2
 178 0 l 1
EndSplineSet
EndChar

StartChar: C
Encoding: 67 67 13
Width: 1495
VWidth: 0
GlyphClass: 2
Flags: W
LayerCount: 2
Fore
SplineSet
862 -24 m 1
 852 -24 l 2
 389 -24 116 312 116 785 c 0
 116 1312 488 1584 876 1584 c 0
 1040 1584 1208 1535 1351 1436 c 1
 1259 1234 l 1
 1151 1324 1014 1372 880 1372 c 0
 621 1372 375 1192 375 784 c 0
 375 371 602 186 868 186 c 0
 1005 186 1153 235 1285 328 c 1
 1368 135 l 1
 1252 40 1030 -22 862 -24 c 1
EndSplineSet
EndChar

StartChar: D
Encoding: 68 68 17
Width: 1538
VWidth: 0
GlyphClass: 2
Flags: W
LayerCount: 2
Fore
SplineSet
178 0 m 1
 178 1560 l 1
 517 1560 l 2
 1111 1560 1422 1290 1422 792 c 0
 1422 275 1140 0 574 0 c 2
 178 0 l 1
428 200 m 1
 590 200 l 2
 1008 200 1156 422 1156 789 c 0
 1156 1142 996 1360 550 1360 c 2
 428 1360 l 1
 428 200 l 1
EndSplineSet
EndChar

StartChar: Delta
Encoding: 916 916 18
Width: 2324
VWidth: 0
GlyphClass: 2
Flags: W
LayerCount: 2
Fore
SplineSet
350 190 m 1
 1247 190 l 1
 833 1305 l 1
 793 1430 l 1
 756 1305 l 1
 350 190 l 1
81 0 m 1
 81 94 l 1
 692 1678 l 1
 906 1678 l 1
 1517 94 l 1
 1517 0 l 1
 81 0 l 1
EndSplineSet
EndChar

StartChar: E
Encoding: 69 69 19
Width: 1145
VWidth: 0
GlyphClass: 2
Flags: W
LayerCount: 2
Fore
SplineSet
178 0 m 1
 178 1560 l 1
 1036 1560 l 1
 1036 1360 l 1
 428 1360 l 1
 428 906 l 1
 994 906 l 1
 994 713 l 1
 428 713 l 1
 428 200 l 1
 1056 200 l 1
 1056 0 l 1
 178 0 l 1
EndSplineSet
EndChar

StartChar: Euro
Encoding: 8364 8364 27
Width: 1370
VWidth: 0
GlyphClass: 2
Flags: W
LayerCount: 2
Fore
SplineSet
1000 466 m 1
 -5 466 l 1
 18 628 l 1
 219 628 l 1
 219 814 l 1
 -9 814 l 1
 17 976 l 1
 1062 976 l 1
 1038 814 l 1
 346 814 l 1
 346 628 l 1
 1023 628 l 1
 1000 466 l 1
EndSplineSet
Refer: 13 67 N 1 0 0 1 30 0 2
EndChar

StartChar: F
Encoding: 70 70 28
Width: 1093
VWidth: 0
GlyphClass: 2
Flags: W
LayerCount: 2
Fore
SplineSet
178 0 m 1
 178 1560 l 1
 1019 1560 l 1
 1019 1360 l 1
 428 1360 l 1
 428 925 l 1
 986 925 l 1
 986 732 l 1
 428 732 l 1
 428 0 l 1
 178 0 l 1
EndSplineSet
EndChar

StartChar: G
Encoding: 71 71 29
Width: 1561
VWidth: 0
GlyphClass: 2
Flags: W
LayerCount: 2
Fore
SplineSet
862 -24 m 2
 852 -24 l 2
 389 -24 116 312 116 785 c 0
 116 1312 488 1584 876 1584 c 0
 1040 1584 1208 1535 1351 1436 c 1
 1259 1234 l 1
 1151 1324 1014 1372 880 1372 c 0
 621 1372 375 1192 375 784 c 0
 375 341 614 180 904 180 c 0
 988 180 1075 193 1163 217 c 1
 1163 638 l 1
 786 638 l 1
 786 828 l 1
 1400 828 l 1
 1400 85 l 1
 1259 18 1043 -24 862 -24 c 2
EndSplineSet
EndChar

StartChar: H
Encoding: 72 72 31
Width: 1525
VWidth: 0
GlyphClass: 2
Flags: W
LayerCount: 2
Fore
SplineSet
178 0 m 1
 178 1560 l 1
 428 1560 l 1
 428 910 l 1
 1097 910 l 1
 1097 1560 l 1
 1347 1560 l 1
 1347 0 l 1
 1097 0 l 1
 1097 695 l 1
 428 695 l 1
 428 0 l 1
 178 0 l 1
EndSplineSet
EndChar

StartChar: I
Encoding: 73 73 32
Width: 934
VWidth: 0
GlyphClass: 2
Flags: W
LayerCount: 2
Fore
SplineSet
766 0 m 1
 168 0 l 1
 168 182 l 1
 342 182 l 1
 342 1378 l 1
 168 1378 l 1
 168 1560 l 1
 766 1560 l 1
 766 1378 l 1
 592 1378 l 1
 592 182 l 1
 766 182 l 1
 766 0 l 1
EndSplineSet
EndChar

StartChar: J
Encoding: 74 74 41
Width: 1270
VWidth: 0
GlyphClass: 2
Flags: W
LayerCount: 2
Fore
SplineSet
100 145 m 1
 218 310 l 1
 296 221 387 184 468 184 c 2
 478 184 l 1
 592 188 681 268 681 428 c 2
 681 1360 l 1
 317 1360 l 1
 317 1560 l 1
 1242 1560 l 1
 1242 1360 l 1
 924 1360 l 1
 924 447 l 2
 924 125 718 -24 495 -24 c 0
 340 -24 209 21 100 145 c 1
EndSplineSet
EndChar

StartChar: K
Encoding: 75 75 44
Width: 1292
VWidth: 0
GlyphClass: 2
Flags: W
LayerCount: 2
Fore
SplineSet
178 0 m 1
 178 1560 l 1
 428 1560 l 1
 428 876 l 1
 937 1560 l 1
 1241 1560 l 1
 665 827 l 1
 1275 0 l 1
 956 0 l 1
 428 735 l 1
 428 0 l 1
 178 0 l 1
EndSplineSet
EndChar

StartChar: L
Encoding: 76 76 45
Width: 1051
VWidth: 0
GlyphClass: 2
Flags: W
LayerCount: 2
Fore
SplineSet
178 0 m 1
 178 1560 l 1
 428 1560 l 1
 428 200 l 1
 1034 200 l 1
 1034 0 l 1
 178 0 l 1
EndSplineSet
EndChar

StartChar: Lslash
Encoding: 321 321 47
Width: 1982
VWidth: 0
GlyphClass: 2
Flags: W
LayerCount: 2
Fore
SplineSet
256 0 m 1
 256 710 l 1
 37 574 l 1
 37 735 l 1
 256 871 l 1
 256 1710 l 1
 458 1710 l 1
 458 997 l 1
 793 1206 l 1
 793 1045 l 1
 458 836 l 1
 458 174 l 1
 1279 174 l 1
 1279 0 l 1
 256 0 l 1
EndSplineSet
EndChar

StartChar: M
Encoding: 77 77 48
Width: 1875
VWidth: 0
GlyphClass: 2
Flags: W
LayerCount: 2
Fore
SplineSet
178 0 m 1
 178 1560 l 1
 471 1560 l 1
 624 1251 782 947 931 633 c 1
 1076 951 1238 1250 1391 1560 c 1
 1683 1560 l 1
 1683 0 l 1
 1433 0 l 1
 1433 1189 l 1
 1328 955 l 1
 985 293 l 1
 872 293 l 1
 532 967 l 1
 428 1206 l 1
 428 0 l 1
 178 0 l 1
EndSplineSet
EndChar

StartChar: N
Encoding: 78 78 49
Width: 1603
VWidth: 0
GlyphClass: 2
Flags: W
LayerCount: 2
Fore
SplineSet
178 0 m 1
 178 1560 l 1
 439 1560 l 1
 689 1153 947 753 1191 340 c 1
 1191 1560 l 1
 1411 1560 l 1
 1411 0 l 1
 1146 0 l 1
 897 406 644 808 398 1217 c 1
 398 0 l 1
 178 0 l 1
EndSplineSet
EndChar

StartChar: O
Encoding: 79 79 52
Width: 1674
VWidth: 0
GlyphClass: 2
Flags: W
LayerCount: 2
Fore
SplineSet
834 -24 m 0
 407 -24 116 307 116 780 c 0
 116 1248 405 1584 834 1584 c 0
 1267 1584 1558 1248 1558 780 c 0
 1558 307 1265 -24 834 -24 c 0
834 186 m 0
 1062 186 1300 373 1299 778 c 1
 1299 1188 1062 1377 834 1377 c 0
 606 1377 375 1188 375 778 c 0
 375 373 606 186 834 186 c 0
EndSplineSet
EndChar

StartChar: OE
Encoding: 338 338 53
Width: 3537
VWidth: 0
GlyphClass: 2
Flags: W
LayerCount: 2
Fore
SplineSet
988 133 m 0
 1142 133 1251 205 1331 298 c 1
 1331 1418 l 1
 1247 1499 1141 1554 990 1554 c 0
 795 1554 659 1461 570 1338 c 0
 483 1218 426 1044 426 838 c 0
 426 518 544 291 744 188 c 0
 814 152 896 133 988 133 c 0
990 -40 m 0
 615 -40 377 167 268 477 c 0
 229 586 210 707 210 843 c 0
 210 1258 405 1536 674 1661 c 0
 769 1706 877 1728 997 1728 c 0
 1136 1728 1244 1676 1331 1608 c 1
 1331 1696 l 1
 2203 1696 l 1
 2203 1522 l 1
 1513 1522 l 1
 1513 949 l 1
 2158 949 l 1
 2158 776 l 1
 1513 776 l 1
 1513 160 l 1
 2237 160 l 1
 2237 -14 l 1
 1331 -14 l 1
 1331 110 l 1
 1245 24 1139 -40 990 -40 c 0
EndSplineSet
EndChar

StartChar: Oslash
Encoding: 216 216 58
Width: 1582
VWidth: 0
GlyphClass: 2
Flags: W
LayerCount: 2
Fore
SplineSet
453 -291 m 1
 311 -239 l 1
 1148 1684 l 1
 1295 1633 l 1
 453 -291 l 1
EndSplineSet
Refer: 52 79 N 1 0 0 1 0 0 2
EndChar

StartChar: P
Encoding: 80 80 60
Width: 1262
VWidth: 0
GlyphClass: 2
Flags: W
LayerCount: 2
Fore
SplineSet
428 866 m 1
 638 866 l 2
 846 866 943 933 943 1119 c 0
 943 1296 839 1360 620 1360 c 2
 428 1360 l 1
 428 866 l 1
178 0 m 1
 178 1560 l 1
 598 1560 l 2
 1011 1560 1199 1434 1199 1121 c 0
 1199 793 1017 663 621 663 c 2
 428 663 l 1
 428 0 l 1
 178 0 l 1
EndSplineSet
EndChar

StartChar: Q
Encoding: 81 81 61
Width: 1674
VWidth: 0
GlyphClass: 2
Flags: W
LayerCount: 2
Fore
SplineSet
931 197 m 1
 827 382 l 1
 1005 477 l 1
 1108 287 l 1
 1219 381 1299 541 1299 775 c 0
 1299 1186 1063 1377 834 1377 c 0
 606 1377 375 1188 375 778 c 0
 375 373 606 186 834 186 c 0
 866 186 899 189 931 197 c 1
834 -24 m 0
 407 -24 116 307 116 780 c 0
 116 1248 405 1584 834 1584 c 0
 1267 1584 1558 1248 1558 780 c 0
 1558 467 1430 217 1219 83 c 1
 1355 -168 l 1
 1187 -257 l 1
 1040 4 l 1
 976 -14 907 -24 834 -24 c 0
EndSplineSet
EndChar

StartChar: R
Encoding: 82 82 62
Width: 1365
VWidth: 0
GlyphClass: 2
Flags: W
LayerCount: 2
Fore
SplineSet
428 889 m 1
 644 889 l 2
 847 889 959 975 959 1142 c 0
 959 1302 874 1360 678 1360 c 2
 428 1360 l 1
 428 889 l 1
178 0 m 1
 178 1560 l 1
 661 1560 l 2
 1035 1560 1211 1423 1211 1157 c 0
 1211 987 1135 826 962 750 c 1
 1261 0 l 1
 994 0 l 1
 740 706 l 1
 428 706 l 1
 428 0 l 1
 178 0 l 1
EndSplineSet
EndChar

StartChar: S
Encoding: 83 83 66
Width: 1235
VWidth: 0
GlyphClass: 2
Flags: W
LayerCount: 2
Fore
SplineSet
656 -22 m 0
 476 -22 257 39 106 133 c 1
 170 339 l 1
 360 235 517 195 646 195 c 0
 820 195 908 300 908 413 c 0
 908 521 880 606 530 718 c 1
 184 837 98 964 98 1148 c 0
 98 1380 246 1584 628 1584 c 0
 786 1584 959 1547 1102 1461 c 1
 1026 1263 l 1
 890 1334 762 1371 645 1371 c 0
 438 1371 376 1287 376 1184 c 0
 376 1077 400 1021 667 926 c 1
 1032 802 1158 694 1158 439 c 2
 1158 421 l 1
 1153 179 996 -22 656 -22 c 0
EndSplineSet
EndChar

StartChar: T
Encoding: 84 84 70
Width: 1116
VWidth: 0
GlyphClass: 2
Flags: W
LayerCount: 2
Fore
SplineSet
434 0 m 1
 434 1360 l 1
 24 1360 l 1
 24 1560 l 1
 1092 1560 l 1
 1092 1360 l 1
 682 1360 l 1
 682 0 l 1
 434 0 l 1
EndSplineSet
EndChar

StartChar: Thorn
Encoding: 222 222 71
Width: 1367
VWidth: 0
GlyphClass: 2
Flags: W
LayerCount: 2
Fore
SplineSet
442 650 m 1
 675 650 l 2
 896 650 1018 678 1018 852 c 0
 1018 1072 878 1080 636 1080 c 2
 442 1080 l 1
 442 650 l 1
192 0 m 1
 192 1456 l 1
 442 1456 l 1
 442 1270 l 1
 632 1270 l 2
 990 1270 1253 1210 1253 855 c 0
 1253 528 1012 456 677 456 c 2
 442 456 l 1
 442 0 l 1
 192 0 l 1
EndSplineSet
EndChar

StartChar: U
Encoding: 85 85 72
Width: 1490
VWidth: 0
GlyphClass: 2
Flags: W
LayerCount: 2
Fore
SplineSet
754 -24 m 0
 377 -24 160 208 160 547 c 2
 160 1560 l 1
 410 1560 l 1
 410 536 l 2
 410 322 537 184 753 184 c 0
 958 184 1081 319 1081 529 c 2
 1081 1560 l 1
 1330 1560 l 1
 1330 558 l 2
 1330 213 1123 -24 754 -24 c 0
EndSplineSet
EndChar

StartChar: V
Encoding: 86 86 77
Width: 1402
VWidth: 0
GlyphClass: 2
Flags: W
LayerCount: 2
Fore
SplineSet
579 0 m 1
 51 1560 l 1
 323 1560 l 1
 604 630 l 1
 719 323 l 1
 826 629 l 1
 1072 1560 l 1
 1352 1560 l 1
 857 0 l 1
 579 0 l 1
EndSplineSet
EndChar

StartChar: W
Encoding: 87 87 78
Width: 2175
VWidth: 0
GlyphClass: 2
Flags: W
LayerCount: 2
Fore
SplineSet
513 0 m 1
 61 1560 l 1
 316 1560 l 1
 565 614 l 1
 632 385 l 1
 718 614 l 1
 1013 1560 l 1
 1175 1560 l 1
 1469 610 l 1
 1550 386 l 1
 1622 614 l 1
 1865 1560 l 1
 2114 1560 l 1
 1663 0 l 1
 1442 0 l 1
 1089 1155 l 1
 734 0 l 1
 513 0 l 1
EndSplineSet
EndChar

StartChar: X
Encoding: 88 88 79
Width: 1436
VWidth: 0
GlyphClass: 2
Flags: W
LayerCount: 2
Fore
SplineSet
1093 0 m 1
 718 603 l 1
 330 0 l 1
 56 0 l 1
 595 803 l 1
 105 1557 l 1
 383 1557 l 1
 742 971 l 1
 1108 1557 l 1
 1381 1557 l 1
 865 770 l 1
 1364 0 l 1
 1093 0 l 1
EndSplineSet
EndChar

StartChar: Y
Encoding: 89 89 80
Width: 1299
VWidth: 0
GlyphClass: 2
Flags: W
LayerCount: 2
Fore
SplineSet
532 0 m 1
 532 612 l 1
 23 1560 l 1
 294 1560 l 1
 655 838 l 1
 1018 1560 l 1
 1276 1560 l 1
 782 614 l 1
 782 0 l 1
 532 0 l 1
EndSplineSet
EndChar

StartChar: Z
Encoding: 90 90 83
Width: 1170
VWidth: 0
GlyphClass: 2
Flags: W
LayerCount: 2
Fore
SplineSet
85 0 m 1
 85 198 l 1
 825 1360 l 1
 116 1360 l 1
 116 1560 l 1
 1117 1560 l 1
 1117 1380 l 1
 380 200 l 1
 1109 200 l 1
 1109 0 l 1
 85 0 l 1
EndSplineSet
EndChar

StartChar: a
Encoding: 97 97 87
Width: 1223
VWidth: 0
GlyphClass: 2
Flags: W
LayerCount: 2
Fore
SplineSet
576.716 163.974 m 0
 721.432 163.974 785.14 285.301 785.14 429 c 2
 785.14 849 l 1
 785.14 849 697.14 862 638.14 862 c 0
 440.123 862 344.952 671.105 344.952 488.974 c 0
 344.952 322.827 424.148 163.974 576.716 163.974 c 0
817.14 151 m 1
 764.394 44.4932 673.816 -22.0254 548.132 -22.0254 c 0
 257.428 -22.0254 100 231.557 100 491.825 c 0
 100 766.196 274.948 1048 653.14 1048 c 0
 801.14 1048 985.14 993 1027.14 976 c 1
 1027.14 345 l 2
 1027.14 242 1030.14 174 1151.14 174 c 0
 1162.14 174 1175.14 175 1188.14 176 c 1
 1164.14 -16 l 1
 1140.14 -17 1116.14 -18 1095.14 -18 c 0
 943.14 -18 863.14 22 817.14 151 c 1
EndSplineSet
EndChar

StartChar: acutecomb
Encoding: 769 769 93
Width: 1078
VWidth: 0
GlyphClass: 4
Flags: W
LayerCount: 2
Fore
SplineSet
300 1144 m 1
 566 1520 l 1
 885 1520 l 1
 523 1144 l 1
 300 1144 l 1
EndSplineSet
EndChar

StartChar: ae
Encoding: 230 230 95
Width: 1748
VWidth: 0
GlyphClass: 2
Flags: W
LayerCount: 2
Fore
SplineSet
1393 758 m 0
 1393 823 1346 867 1268 867 c 0
 1115 867 1015 698 1007 571 c 1
 1299 605 1393 644 1393 758 c 0
772 418 m 1
 474 411 337 396 337 260 c 0
 337 180 402 142 482 142 c 0
 608 142 772 238 772 418 c 1
1684 100 m 1
 1573 3 1420 -22 1294 -22 c 0
 1126 -22 979 42 884 160 c 1
 775 24 622 -22 468 -22 c 0
 269 -22 130 75 130 263 c 0
 130 549 476 563 770 563 c 1
 770 626 l 2
 770 799 662 862 539 862 c 0
 439 862 331 821 262 763 c 1
 172 924 l 1
 282 1004 426 1051 561 1051 c 0
 710 1051 847 992 909 857 c 1
 999 983 1129 1048 1279 1048 c 0
 1498 1048 1627 925 1627 763 c 2
 1627 750 l 1
 1619 566 1441 465 1015 429 c 1
 1033 248 1184 164 1325 164 c 0
 1414 164 1510 196 1596 259 c 1
 1684 100 l 1
EndSplineSet
EndChar

StartChar: ampersand
Encoding: 38 38 98
Width: 1525
VWidth: 0
GlyphClass: 2
Flags: W
LayerCount: 2
Fore
SplineSet
586 910 m 1
 675 961 773 1067 773 1174 c 0
 773 1268 701 1315 614 1315 c 0
 527 1315 447 1269 447 1174 c 0
 447 1063 523 976 586 910 c 1
902 293 m 1
 517 712 l 1
 380 616 311 538 311 395 c 0
 311 221 437 140 580 140 c 0
 695 140 822 193 902 293 c 1
98 386 m 0
 98 602 253 731 419 827 c 1
 335 918 255 1010 255 1162 c 0
 255 1361 419 1483 604 1483 c 0
 805 1483 973 1376 973 1191 c 0
 973 989 803 874 669 799 c 1
 1001 436 l 1
 1094 563 1143 746 1143 919 c 1
 1335 871 l 1
 1326 632 1248 431 1137 289 c 1
 1210 214 1251 163 1446 122 c 1
 1369 -36 l 1
 1216 -14 1092 72 1009 159 c 1
 898 29 726 -37 562 -37 c 0
 322 -37 98 103 98 386 c 0
EndSplineSet
EndChar

StartChar: approxequal
Encoding: 8776 8776 100
Width: 2296
VWidth: 0
GlyphClass: 2
Flags: W
LayerCount: 2
Fore
SplineSet
412 898 m 1
 277 930 l 1
 316 1103 425 1230 606 1230 c 0
 762 1230 879 1112 993 1060 c 0
 1027 1045 1057 1036 1086 1036 c 0
 1193 1036 1238 1131 1270 1232 c 1
 1399 1199 l 1
 1363 1029 1262 898 1079 898 c 0
 994 898 936 928 876 962 c 0
 822 992 749 1042 694 1069 c 0
 663 1084 633 1091 602 1091 c 0
 490 1091 440 1000 412 898 c 1
414 460 m 1
 280 493 l 1
 321 662 429 795 609 795 c 0
 712 795 803 741 874 697 c 1
 915 673 953 651 989 630 c 1
 1025 611 1057 599 1088 599 c 0
 1194 599 1240 697 1272 795 c 1
 1401 762 l 1
 1362 593 1266 461 1082 461 c 0
 998 461 937 492 879 525 c 0
 827 555 752 605 698 631 c 0
 666 646 636 654 606 654 c 0
 492 654 441 563 414 460 c 1
EndSplineSet
EndChar

StartChar: asciicircum
Encoding: 94 94 102
Width: 1335
VWidth: 0
GlyphClass: 2
Flags: W
LayerCount: 2
Fore
SplineSet
162 570 m 1
 618 1448 l 1
 710 1448 l 1
 1172 570 l 1
 968 570 l 1
 662 1176 l 1
 368 570 l 1
 162 570 l 1
EndSplineSet
EndChar

StartChar: asciitilde
Encoding: 126 126 103
Width: 1432
VWidth: 0
GlyphClass: 2
Flags: W
LayerCount: 2
Fore
SplineSet
281 667 m 1
 134 721 l 1
 173 959 321 1081 485 1081 c 0
 538 1081 592 1069 645 1043 c 2
 884 928 l 2
 918 912 948 904 974 904 c 0
 1071 904 1116 1006 1155 1113 c 1
 1302 1067 l 1
 1258 838 1153 677 980 677 c 0
 928 677 870 692 805 724 c 2
 575 838 l 2
 539 856 505 864 475 864 c 0
 369 864 302 765 281 667 c 1
EndSplineSet
EndChar

StartChar: asterisk
Encoding: 42 42 104
Width: 1156
VWidth: 0
GlyphClass: 2
Flags: W
LayerCount: 2
Fore
SplineSet
745 618 m 1
 576 930 l 1
 413 627 l 1
 267 715 l 1
 485 995 l 1
 164 1104 l 1
 228 1250 l 1
 524 1100 l 1
 494 1456 l 1
 645 1456 l 1
 632 1106 l 1
 916 1251 l 1
 992 1105 l 1
 663 999 l 1
 893 704 l 1
 745 618 l 1
EndSplineSet
EndChar

StartChar: at
Encoding: 64 64 105
Width: 1811
VWidth: 0
GlyphClass: 2
Flags: W
LayerCount: 2
Fore
SplineSet
826 465 m 0
 936 465 1074 601 1074 868 c 0
 1074 975 1021 1023 956 1023 c 0
 842 1023 689 883 689 651 c 0
 689 526 752 465 826 465 c 0
953 -64 m 0
 516 -64 111 214 111 721 c 0
 111 1244 534 1514 966 1514 c 0
 1338 1514 1700 1290 1700 832 c 0
 1700 511 1521 298 1275 298 c 0
 1172 298 1075 356 1075 488 c 0
 1075 494 1076 500 1076 506 c 1
 1006 365 888 299 793 299 c 0
 636 299 521 432 521 668 c 0
 521 946 722 1162 919 1177 c 0
 930 1178 939 1178 949 1178 c 0
 1069 1178 1124 1117 1150 1041 c 1
 1189 1146 l 1
 1330 1146 l 1
 1257 792 1208 545 1208 528 c 0
 1208 468 1244 431 1290 431 c 0
 1390 431 1539 544 1539 837 c 0
 1539 1172 1274 1369 964 1369 c 0
 608 1369 302 1140 302 726 c 0
 302 311 598 89 981 89 c 0
 1119 89 1278 129 1401 200 c 1
 1482 71 l 1
 1324 -24 1127 -64 953 -64 c 0
EndSplineSet
EndChar

StartChar: b
Encoding: 98 98 107
Width: 1173
VWidth: 0
GlyphClass: 2
Flags: W
LayerCount: 2
Fore
SplineSet
532 164 m 0
 686 164 827.704 273.003 829 553 c 0
 830 769 732 862 615 862 c 0
 482 862 380 750 380 521 c 2
 380 181 l 1
 424 169 478 164 532 164 c 0
541 -22 m 0
 410 -22 277 3 138 55 c 1
 138 1560 l 1
 380 1560 l 1
 380 905 l 1
 439 1023 541 1048 665 1048 c 0
 882 1048 1073 877 1073 561 c 0
 1073 171 836 -22 541 -22 c 0
EndSplineSet
EndChar

StartChar: backslash
Encoding: 92 92 108
Width: 967
VWidth: 0
GlyphClass: 2
Flags: W
LayerCount: 2
Fore
SplineSet
656 0 m 1
 77 1456 l 1
 314 1456 l 1
 891 0 l 1
 656 0 l 1
EndSplineSet
EndChar

StartChar: bar
Encoding: 124 124 109
Width: 616
VWidth: 0
GlyphClass: 2
Flags: W
LayerCount: 2
Fore
SplineSet
192 -126 m 1
 192 1570 l 1
 424 1570 l 1
 424 -126 l 1
 192 -126 l 1
EndSplineSet
EndChar

StartChar: braceleft
Encoding: 123 123 110
Width: 793
VWidth: 0
GlyphClass: 2
Flags: W
LayerCount: 2
Fore
SplineSet
707 -196 m 1
 489 -196 266 -107 266 122 c 2
 266 299 l 2
 266 473 241 569 81 586 c 1
 81 768 l 1
 222 781 266 869 266 1024 c 2
 266 1190 l 2
 266 1440 454 1552 707 1552 c 1
 707 1384 l 1
 572 1384 516 1343 516 1207 c 2
 516 998 l 2
 516 843 429 729 332 677 c 1
 440 626 516 513 516 360 c 2
 516 203 l 2
 516 42 537 -28 707 -28 c 1
 707 -196 l 1
EndSplineSet
EndChar

StartChar: braceright
Encoding: 125 125 111
Width: 730
VWidth: 0
GlyphClass: 2
Flags: W
LayerCount: 2
Fore
SplineSet
87 -326 m 1
 87 -178 l 1
 247 -178 276 -107 276 103 c 2
 276 290 l 2
 276 443 329 556 437 607 c 1
 337 659 272 772 272 928 c 2
 272 1207 l 2
 272 1343 219 1400 87 1404 c 1
 87 1552 l 1
 339 1552 466 1440 466 1190 c 2
 466 954 l 2
 466 799 511 691 652 678 c 1
 650 536 l 1
 531 524 469 455 468 335 c 2
 466 -8 l 2
 465 -237 305 -317 87 -326 c 1
EndSplineSet
EndChar

StartChar: bracketleft
Encoding: 91 91 112
Width: 812
VWidth: 0
GlyphClass: 2
Flags: W
LayerCount: 2
Fore
SplineSet
187 -204 m 1
 187 1480 l 1
 638 1480 l 1
 638 1350 l 1
 446 1350 l 1
 446 -75 l 1
 638 -75 l 1
 638 -204 l 1
 187 -204 l 1
EndSplineSet
EndChar

StartChar: bracketright
Encoding: 93 93 113
Width: 811
VWidth: 0
GlyphClass: 2
Flags: W
LayerCount: 2
Fore
SplineSet
174 -222 m 1
 174 -93 l 1
 367 -93 l 1
 367 1350 l 1
 175 1350 l 1
 175 1480 l 1
 625 1480 l 1
 625 -222 l 1
 174 -222 l 1
EndSplineSet
EndChar

StartChar: breve
Encoding: 728 728 114
Width: 1106
VWidth: 0
GlyphClass: 2
Flags: W
LayerCount: 2
Fore
SplineSet
570 1153 m 0
 375 1153 257 1243 242 1431 c 1
 344 1431 l 1
 361 1328 447 1279 562 1279 c 0
 677 1279 769 1332 792 1431 c 1
 894 1431 l 1
 879 1250 760 1153 570 1153 c 0
EndSplineSet
EndChar

StartChar: brokenbar
Encoding: 166 166 115
Width: 624
VWidth: 0
GlyphClass: 2
Flags: W
LayerCount: 2
Fore
SplineSet
192 772 m 1
 192 1526 l 1
 432 1526 l 1
 432 772 l 1
 192 772 l 1
192 -277 m 1
 192 518 l 1
 432 518 l 1
 432 -277 l 1
 192 -277 l 1
EndSplineSet
EndChar

StartChar: bullet
Encoding: 8226 8226 116
Width: 1718
VWidth: 0
GlyphClass: 2
Flags: W
LayerCount: 2
Fore
SplineSet
667 678 m 0
 501 678 375 776 317 901 c 0
 297 944 287 992 287 1041 c 0
 287 1215 407 1330 535 1382 c 1
 578 1403 625 1411 672 1411 c 0
 837 1411 962 1312 1020 1189 c 1
 1042 1145 1052 1098 1052 1049 c 0
 1052 935 997 845 933 787 c 1
 868 726 774 678 667 678 c 0
EndSplineSet
EndChar

StartChar: c
Encoding: 99 99 117
Width: 1025
VWidth: 0
GlyphClass: 2
Flags: W
LayerCount: 2
Fore
SplineSet
955 81 m 1
 842.506 11.5732 727.026 -22.3291 611.938 -22.3291 c 0
 341.298 -22.3291 100 165.149 100 519 c 0
 100 853.782 337.381 1047.99 610.439 1047.99 c 0
 714.736 1047.99 819.114 1019.65 925 960 c 1
 860 798 l 1
 778.775 839.885 706.395 861.836 634.237 861.836 c 0
 475.123 861.836 348 755.099 348 520 c 0
 348 258.329 483.854 163.856 636.229 163.856 c 0
 719.107 163.856 801.24 191.805 882 236 c 1
 955 81 l 1
EndSplineSet
EndChar

StartChar: caron
Encoding: 711 711 119
Width: 1215
VWidth: 0
GlyphClass: 2
Flags: W
LayerCount: 2
Fore
SplineSet
339 2061 m 1
 61 2440 l 1
 234 2440 l 1
 414 2187 l 1
 598 2440 l 1
 780 2440 l 1
 503 2061 l 1
 339 2061 l 1
EndSplineSet
EndChar

StartChar: cedilla
Encoding: 184 184 125
Width: 813
VWidth: 0
GlyphClass: 2
Flags: W
LayerCount: 2
Fore
SplineSet
367 -481 m 0
 296 -481 225 -469 161 -456 c 1
 171 -356 l 1
 229 -370 285 -384 348 -384 c 0
 425 -384 482 -365 482 -300 c 0
 482 -230 425 -214 354 -214 c 0
 344 -214 324 -215 311 -217 c 1
 273 -219 l 1
 312 4 l 1
 425 4 l 1
 405 -122 l 1
 415 -122 l 1
 537 -128 650 -171 650 -297 c 0
 650 -438 510 -481 367 -481 c 0
EndSplineSet
EndChar

StartChar: cent
Encoding: 162 162 126
Width: 1027
VWidth: 0
GlyphClass: 2
Flags: W
LayerCount: 2
Fore
SplineSet
566 -414 m 1
 566 1366 l 1
 699 1366 l 1
 699 -414 l 1
 566 -414 l 1
EndSplineSet
Refer: 117 99 N 1 0 0 1 -19 0 2
EndChar

StartChar: circumflex
Encoding: 710 710 127
Width: 1212
VWidth: 0
GlyphClass: 2
Flags: W
LayerCount: 2
Fore
SplineSet
514 1509 m 1
 680 1509 l 1
 968 1128 l 1
 742 1128 l 1
 597 1312 l 1
 445 1128 l 1
 227 1128 l 1
 514 1509 l 1
EndSplineSet
EndChar

StartChar: circumflexcomb
Encoding: 770 770 128
Width: 1212
VWidth: 0
GlyphClass: 4
Flags: W
LayerCount: 2
Fore
SplineSet
514 1509 m 1
 680 1509 l 1
 968 1128 l 1
 742 1128 l 1
 597 1312 l 1
 445 1128 l 1
 227 1128 l 1
 514 1509 l 1
EndSplineSet
EndChar

StartChar: colon
Encoding: 58 58 129
Width: 639
VWidth: 0
GlyphClass: 2
Flags: W
LayerCount: 2
Fore
SplineSet
192 779 m 1
 192 1026 l 1
 447 1026 l 1
 447 779 l 1
 192 779 l 1
192 0 m 1
 192 247 l 1
 447 247 l 1
 447 0 l 1
 192 0 l 1
EndSplineSet
EndChar

StartChar: comma
Encoding: 44 44 130
Width: 612
VWidth: 0
GlyphClass: 2
Flags: W
LayerCount: 2
Fore
SplineSet
138 -297 m 1
 228 255 l 1
 483 255 l 1
 292 -297 l 1
 138 -297 l 1
EndSplineSet
EndChar

StartChar: commaaccentcomb
Encoding: 806 806 132
Width: 961
VWidth: 0
GlyphClass: 2
Flags: W
LayerCount: 2
Fore
SplineSet
148 -1101 m 1
 273 -557 l 1
 492 -557 l 1
 302 -1101 l 1
 148 -1101 l 1
EndSplineSet
EndChar

StartChar: copyright
Encoding: 169 169 133
Width: 1864
VWidth: 0
GlyphClass: 2
Flags: W
LayerCount: 2
Fore
SplineSet
932 1480 m 0
 1346 1480 1684 1141 1684 727 c 0
 1684 314 1346 -25 932 -25 c 0
 518 -25 180 314 180 727 c 0
 180 1141 518 1480 932 1480 c 0
931 80 m 0
 1282 80 1560 374 1560 725 c 0
 1560 1077 1282 1371 931 1371 c 0
 579 1371 301 1077 301 725 c 0
 301 374 579 80 931 80 c 0
957 249 m 0
 662 249 490 473 490 729 c 0
 490 1042 698 1208 967 1208 c 0
 1077 1208 1172 1174 1250 1105 c 1
 1220 985 l 1
 1150 1048 1064 1080 961 1080 c 0
 751 1080 643 920 643 733 c 0
 643 504 776 380 987 380 c 0
 1084 380 1158 411 1216 460 c 1
 1253 339 l 1
 1170 279 1072 249 957 249 c 0
EndSplineSet
EndChar

StartChar: currency
Encoding: 164 164 134
Width: 1313
VWidth: 0
GlyphClass: 2
Flags: W
LayerCount: 2
Fore
SplineSet
652 546 m 0
 832 546 966 680 971 879 c 1
 971 888 l 2
 971 1082 837 1223 661 1227 c 1
 652 1227 l 2
 476 1227 334 1083 334 888 c 0
 334 688 473 546 652 546 c 0
1123 361 m 1
 930 550 l 1
 857 479 760 456 654 456 c 0
 556 456 464 475 392 540 c 1
 209 343 l 1
 167 387 l 1
 352 581 l 1
 277 662 229 772 229 891 c 0
 229 1000 272 1101 339 1180 c 1
 149 1365 l 1
 194 1410 l 1
 380 1226 l 1
 453 1298 548 1325 649 1325 c 2
 665 1325 l 1
 763 1322 852 1301 922 1236 c 1
 1101 1429 l 1
 1149 1384 l 1
 963 1191 l 1
 1035 1111 1079 1005 1079 890 c 2
 1079 879 l 1
 1076 769 1037 670 970 593 c 1
 1166 403 l 1
 1123 361 l 1
EndSplineSet
EndChar

StartChar: d
Encoding: 100 100 135
Width: 1233
VWidth: 0
GlyphClass: 2
Flags: W
LayerCount: 2
Fore
SplineSet
576.716 163.974 m 0
 721.431 163.974 793.14 285.301 793.14 429 c 2
 793.14 849 l 1
 793.14 849 705.14 862 646.14 862 c 0
 448.123 862 344.952 671.105 344.952 488.974 c 0
 344.952 322.827 410.148 163.974 576.716 163.974 c 0
793.64 1023.84 m 1
 793.14 1560 l 1
 1035.14 1560 l 1
 1035.14 345 l 2
 1035.14 242 1038.14 174 1159.14 174 c 0
 1170.14 174 1183.14 175 1196.14 176 c 1
 1172.14 -16 l 1
 1148.14 -17 1124.14 -18 1103.14 -18 c 0
 951.14 -18 871.14 22 825.14 151 c 1
 772.394 44.4932 673.816 -22.0254 548.132 -22.0254 c 0
 249.428 -22.0254 100 231.557 100 491.825 c 0
 100 766.196 282.948 1048 661.14 1048 c 0
 704.7 1048 760.38 1033.99 793.64 1023.84 c 1
EndSplineSet
EndChar

StartChar: dagger
Encoding: 8224 8224 136
Width: 1769
VWidth: 0
GlyphClass: 2
Flags: W
LayerCount: 2
Fore
SplineSet
568 199 m 1
 568 1163 l 1
 198 1163 l 1
 198 1318 l 1
 568 1318 l 1
 568 1770 l 1
 724 1770 l 1
 724 1318 l 1
 1113 1318 l 1
 1113 1163 l 1
 710 1163 l 1
 710 199 l 1
 568 199 l 1
EndSplineSet
EndChar

StartChar: daggerdbl
Encoding: 8225 8225 137
Width: 1776
VWidth: 0
GlyphClass: 2
Flags: W
LayerCount: 2
Fore
SplineSet
551 199 m 1
 571 577 l 1
 183 577 l 1
 183 726 l 1
 571 726 l 1
 571 1220 l 1
 190 1220 l 1
 190 1376 l 1
 579 1376 l 1
 550 1770 l 1
 745 1770 l 1
 723 1376 l 1
 1112 1376 l 1
 1112 1220 l 1
 716 1220 l 1
 716 726 l 1
 1104 726 l 1
 1104 577 l 1
 716 577 l 1
 740 199 l 1
 551 199 l 1
EndSplineSet
EndChar

StartChar: dblgravecmb
Encoding: 783 783 138
Width: 1684
VWidth: 0
GlyphClass: 2
Flags: W
LayerCount: 2
Fore
SplineSet
907 1192 m 1
 606 1560 l 1
 792 1560 l 1
 1046 1192 l 1
 907 1192 l 1
612 1192 m 1
 296 1560 l 1
 502 1560 l 1
 740 1192 l 1
 612 1192 l 1
EndSplineSet
EndChar

StartChar: degree
Encoding: 176 176 139
Width: 1089
VWidth: 0
GlyphClass: 2
Flags: W
LayerCount: 2
Fore
SplineSet
544 778 m 0
 332 778 182 946 182 1126 c 0
 182 1347 372 1469 544 1469 c 0
 758 1469 906 1303 906 1126 c 0
 906 901 716 778 544 778 c 0
544 915 m 0
 671 915 759 1017 759 1125 c 0
 759 1262 650 1333 544 1333 c 0
 420 1333 329 1235 329 1125 c 0
 329 985 439 915 544 915 c 0
EndSplineSet
EndChar

StartChar: dieresis
Encoding: 168 168 140
Width: 1140
VWidth: 0
GlyphClass: 2
Flags: W
LayerCount: 2
Fore
SplineSet
693 1304 m 2
 693 1345 l 2
 693 1417 752 1476 824 1476 c 0
 896 1476 954 1417 954 1345 c 2
 954 1304 l 2
 954 1232 896 1174 824 1174 c 0
 752 1174 693 1232 693 1304 c 2
187 1304 m 2
 187 1345 l 2
 187 1417 246 1476 318 1476 c 0
 390 1476 448 1417 448 1345 c 2
 448 1304 l 2
 448 1232 390 1174 318 1174 c 0
 246 1174 187 1232 187 1304 c 2
EndSplineSet
EndChar

StartChar: divide
Encoding: 247 247 141
Width: 2504
VWidth: 0
GlyphClass: 2
Flags: W
LayerCount: 2
Fore
SplineSet
830 37 m 1
 830 284 l 1
 1059 284 l 1
 1059 37 l 1
 830 37 l 1
359 581 m 1
 359 745 l 1
 1518 745 l 1
 1518 581 l 1
 359 581 l 1
830 1037 m 1
 830 1284 l 1
 1059 1284 l 1
 1059 1037 l 1
 830 1037 l 1
EndSplineSet
EndChar

StartChar: dollar
Encoding: 36 36 142
Width: 1227
VWidth: 0
GlyphClass: 2
Flags: W
LayerCount: 2
Fore
SplineSet
565 -213 m 1
 567 1628 l 1
 696 1628 l 1
 696 -213 l 1
 565 -213 l 1
EndSplineSet
Refer: 66 83 N 1 0 0 1 -33 0 2
EndChar

StartChar: dotaccent
Encoding: 729 729 143
Width: 932
VWidth: 0
GlyphClass: 2
Flags: W
LayerCount: 2
Fore
SplineSet
334 2195 m 1
 334 2386 l 1
 523 2386 l 1
 523 2195 l 1
 334 2195 l 1
EndSplineSet
EndChar

StartChar: dotaccentcmb
Encoding: 775 775 144
Width: 932
VWidth: 0
GlyphClass: 2
Flags: W
LayerCount: 2
Fore
SplineSet
401 1412 m 0
 485 1412 526 1352 526 1293 c 0
 526 1234 485 1174 401 1174 c 0
 317 1174 276 1234 276 1293 c 0
 276 1352 317 1412 401 1412 c 0
EndSplineSet
EndChar

StartChar: dotlessi
Encoding: 305 305 145
Width: 731
VWidth: 0
GlyphClass: 2
Flags: W
LayerCount: 2
Fore
SplineSet
747 33 m 1
 669 2 589 -15 515 -15 c 0
 340 -15 197 82 197 337 c 2
 197 1026 l 1
 439 1026 l 1
 439 334 l 2
 439 217 485 177 567 177 c 0
 608 177 658 187 716 203 c 1
 747 33 l 1
EndSplineSet
EndChar

StartChar: dotlessj
Encoding: 567 567 146
Width: 895
VWidth: 0
GlyphClass: 2
Flags: W
LayerCount: 2
Fore
SplineSet
-25 -756 m 0
 -77 -756 -124 -750 -169 -740 c 1
 -170 -573 l 1
 -135 -578 -106 -585 -71 -585 c 0
 112 -585 155 -423 155 -216 c 2
 155 953 l 1
 349 953 l 1
 349 -166 l 2
 349 -428 297 -650 115 -730 c 0
 75 -747 29 -756 -25 -756 c 0
EndSplineSet
EndChar

StartChar: e
Encoding: 101 101 147
Width: 1094
VWidth: 0
GlyphClass: 2
Flags: W
LayerCount: 2
Fore
SplineSet
939 266 m 1
 1019 113 l 1
 908 16 739 -22 613 -22 c 0
 320 -22 100 178 100 519 c 0
 100 821 304 1048 604 1048 c 0
 829 1048 952 897 952 750 c 0
 952 566 818 415 365 371 c 1
 403.97 225.502 506.651 163.539 632.805 163.539 c 0
 727.94 163.539 833 191 939 266 c 1
736 742 m 0
 736 818.31 683.432 867 601 867 c 0
 448 867 348 723 348 523 c 1
 635 565 736 637 736 742 c 0
EndSplineSet
EndChar

StartChar: e.alt
Encoding: 65540 -1 148
Width: 1840
VWidth: 0
GlyphClass: 2
Flags: W
LayerCount: 2
Fore
SplineSet
390 564 m 1
 693 616 927 686 927 875 c 0
 927 982 854 1061 726 1061 c 0
 513 1061 387 852 387 622 c 0
 387 603 388 584 390 564 c 1
720 -34 m 0
 440 -34 176 195 176 595 c 0
 176 934 382 1229 724 1229 c 0
 957 1229 1118 1066 1118 870 c 0
 1118 583 790 488 403 425 c 1
 450 214 586 133 728 133 c 0
 875 133 1012 208 1099 313 c 1
 1197 188 l 1
 1058 43 900 -34 720 -34 c 0
EndSplineSet
EndChar

StartChar: eight
Encoding: 56 56 156
Width: 1282
VWidth: 0
GlyphClass: 2
Flags: W
LayerCount: 2
Fore
SplineSet
206 1107 m 0
 206 1352 390 1480 642 1480 c 0
 932 1480 1077 1305 1077 1107 c 0
 1077 980 984 866 824 761 c 1
 1013 649 1108 513 1108 353 c 0
 1108 156 983 -24 642 -24 c 0
 321 -24 176 135 176 360 c 0
 176 515 238 621 445 745 c 1
 336 804 206 906 206 1107 c 0
633 649 m 1
 492 558 417 455 417 359 c 0
 417 251 494 168 644 168 c 0
 811 168 879 251 879 356 c 0
 879 460 843 532 633 649 c 1
647 855 m 1
 821 957 853 1028 853 1122 c 0
 853 1239 759 1292 646 1292 c 0
 524 1292 437 1231 437 1122 c 0
 437 990 509 930 647 855 c 1
EndSplineSet
EndChar

StartChar: ellipsis
Encoding: 8230 8230 157
Width: 2772
VWidth: 0
GlyphClass: 2
Flags: W
LayerCount: 2
Fore
SplineSet
1468 -20 m 1
 1468 227 l 1
 1723 227 l 1
 1723 -20 l 1
 1468 -20 l 1
887 -20 m 1
 887 227 l 1
 1126 227 l 1
 1126 -20 l 1
 887 -20 l 1
290 -20 m 1
 290 227 l 1
 544 227 l 1
 544 -20 l 1
 290 -20 l 1
EndSplineSet
EndChar

StartChar: emdash
Encoding: 8212 8212 159
Width: 3633
VWidth: 0
GlyphClass: 2
Flags: W
LayerCount: 2
Fore
SplineSet
5 861 m 1
 5 1022 l 1
 2345 1022 l 1
 2345 861 l 1
 5 861 l 1
EndSplineSet
EndChar

StartChar: endash
Encoding: 8211 8211 160
Width: 1842
VWidth: 0
GlyphClass: 2
Flags: W
LayerCount: 2
Fore
SplineSet
0 861 m 1
 0 1022 l 1
 1202 1022 l 1
 1202 861 l 1
 0 861 l 1
EndSplineSet
EndChar

StartChar: equal
Encoding: 61 61 162
Width: 1210
VWidth: 0
GlyphClass: 2
Flags: W
LayerCount: 2
Fore
SplineSet
193 450 m 1
 193 620 l 1
 1018 620 l 1
 1018 450 l 1
 193 450 l 1
192 853 m 1
 192 1026 l 1
 1018 1026 l 1
 1018 853 l 1
 192 853 l 1
EndSplineSet
EndChar

StartChar: eth
Encoding: 240 240 163
Width: 2022
VWidth: 0
GlyphClass: 2
Flags: W
LayerCount: 2
Fore
SplineSet
700 126 m 0
 937 126 1049 327 1049 588 c 2
 1049 616 l 1
 1002 766 879 875 698 875 c 0
 487 875 372 736 372 504 c 0
 372 329 450 207 564 153 c 0
 605 134 649 126 700 126 c 0
708 -40 m 0
 461 -40 283 95 205 293 c 1
 177 359 165 433 165 510 c 0
 165 764 296 928 470 1001 c 0
 530 1027 595 1040 669 1040 c 0
 860 1040 988 970 1064 836 c 1
 1064 847 l 1
 1063 981 1052 1087 1027 1191 c 1
 749 1191 l 1
 749 1352 l 1
 968 1352 l 1
 904 1479 817 1565 701 1637 c 1
 784 1736 l 1
 953 1663 1067 1531 1146 1352 c 1
 1377 1352 l 1
 1377 1191 l 1
 1207 1191 l 1
 1242 1068 1263 933 1263 776 c 0
 1263 410 1160 129 937 12 c 1
 869 -22 794 -40 708 -40 c 0
EndSplineSet
EndChar

StartChar: exclam
Encoding: 33 33 164
Width: 782
VWidth: 0
GlyphClass: 2
Flags: W
LayerCount: 2
Fore
SplineSet
319 498 m 1
 228 1456 l 1
 542 1456 l 1
 448 498 l 1
 319 498 l 1
391 -12 m 0
 295 -12 226 54 226 149 c 0
 226 241 295 306 391 306 c 0
 487 306 556 241 556 146 c 0
 556 52 487 -12 391 -12 c 0
EndSplineSet
EndChar

StartChar: f
Encoding: 102 102 166
Width: 826
VWidth: 0
GlyphClass: 2
Flags: W
LayerCount: 2
Fore
SplineSet
470 0 m 1
 228 0 l 1
 228 862 l 1
 32 862 l 1
 32 1026 l 1
 228 1026 l 1
 228 1176 l 2
 228 1466 374 1560 687 1560 c 2
 792 1560 l 1
 792 1372 l 1
 705 1372 l 2
 496 1372 470 1303 470 1141 c 2
 470 1026 l 1
 772 1026 l 1
 772 862 l 1
 470 862 l 1
 470 0 l 1
EndSplineSet
EndChar

StartChar: f.alt
Encoding: 65541 -1 167
Width: 760
VWidth: 0
GlyphClass: 2
Flags: W
LayerCount: 2
Fore
SplineSet
101 -410 m 1
 80 -213 l 1
 210 -213 259 -155 259 -19 c 2
 259 862 l 1
 73 862 l 1
 73 1026 l 1
 259 1026 l 1
 259 1096 l 2
 259 1386 405 1480 678 1480 c 2
 781 1480 l 1
 781 1292 l 1
 696 1292 l 2
 538 1292 501 1223 501 1061 c 2
 501 1026 l 1
 731 1026 l 1
 731 862 l 1
 501 862 l 1
 501 -11 l 2
 501 -273 370 -410 101 -410 c 1
EndSplineSet
EndChar

StartChar: five
Encoding: 53 53 168
Width: 1282
VWidth: 0
GlyphClass: 2
Flags: W
LayerCount: 2
Fore
SplineSet
657 -24 m 0
 484 -24 358 29 232 133 c 1
 322 322 l 1
 413 240 506 184 642 184 c 0
 799 184 899 313 899 459 c 0
 899 639 793 731 680 733 c 1
 607 733 542 717 475 644 c 1
 300 644 l 1
 300 1456 l 1
 1032 1456 l 1
 1032 1257 l 1
 522 1257 l 1
 508 851 l 1
 550 885 612 929 735 929 c 0
 924 929 1141 806 1141 466 c 0
 1141 138 907 -24 657 -24 c 0
EndSplineSet
EndChar

StartChar: florin
Encoding: 402 402 169
Width: 2044
VWidth: 0
GlyphClass: 2
Flags: W
LayerCount: 2
Fore
SplineSet
260 -585 m 0
 224 -585 183 -579 139 -566 c 1
 153 -404 l 1
 185 -417 216 -422 245 -422 c 0
 376 -422 416 -294 439 -187 c 1
 506 110 548 437 602 748 c 1
 437 748 l 1
 448 912 l 1
 627 912 l 1
 651 1090 l 1
 679 1318 767 1491 1010 1491 c 0
 1068 1491 1125 1482 1177 1469 c 1
 1168 1299 l 1
 1129 1314 1087 1324 1041 1324 c 0
 908 1324 866 1257 846 1143 c 1
 808 912 l 1
 1029 912 l 1
 1018 748 l 1
 784 748 l 1
 649 -54 l 1
 613 -255 571 -451 436 -541 c 0
 394 -570 332 -585 260 -585 c 0
EndSplineSet
EndChar

StartChar: four
Encoding: 52 52 170
Width: 1282
VWidth: 0
GlyphClass: 2
Flags: W
LayerCount: 2
Fore
SplineSet
982 868 m 1
 982 518 l 1
 1179 518 l 1
 1179 327 l 1
 982 327 l 1
 982 0 l 1
 772 0 l 1
 772 327 l 1
 154 327 l 1
 154 504 l 1
 520 1456 l 1
 743 1456 l 1
 415 518 l 1
 772 518 l 1
 772 868 l 1
 982 868 l 1
EndSplineSet
EndChar

StartChar: four.alt
Encoding: 65542 -1 171
Width: 1254
VWidth: 0
GlyphClass: 2
Flags: W
LayerCount: 2
Fore
SplineSet
344 511 m 1
 755 511 l 1
 755 1167 l 1
 619 947 482 728.333333333 344 511 c 1
755 0 m 1
 755 327 l 1
 114 327 l 1
 114 504 l 1
 720 1456 l 1
 982 1456 l 1
 982 511 l 1
 1179 511 l 1
 1179 327 l 1
 982 327 l 1
 982 0 l 1
 755 0 l 1
EndSplineSet
EndChar

StartChar: fraction
Encoding: 8260 8260 172
Width: 584
VWidth: 0
GlyphClass: 2
Flags: W
LayerCount: 2
Fore
SplineSet
-583 0 m 1
 407 1686 l 1
 582 1686 l 1
 -406 0 l 1
 -583 0 l 1
EndSplineSet
EndChar

StartChar: g
Encoding: 103 103 173
Width: 1199
VWidth: 0
GlyphClass: 2
Flags: W
LayerCount: 2
Fore
SplineSet
580.443 186 m 0
 728.443 186 799.443 321 799.443 514 c 2
 799.443 839 l 1
 763.443 853 693.443 862 640.443 862 c 0
 482.164 862 344.435 734.164 344.435 481.46 c 0
 344.435 277.633 468.245 186 580.443 186 c 0
539.312 -0.479492 m 0
 297.036 -0.479492 100 186.652 100 485.628 c 0
 100 831.026 326.711 1048 651.443 1048 c 0
 778.443 1048 945.443 1011 1041.44 955 c 1
 1041.44 -16 l 2
 1041.44 -385 855.443 -575 546.443 -575 c 0
 435.443 -575 308.443 -551 168.443 -501 c 1
 195.443 -298 l 1
 282.443 -342 399.443 -379 507.443 -379 c 0
 662.443 -379 799.443 -303 799.443 -62 c 2
 799.443 129 l 1
 727.539 30.6611 650.733 -0.479492 539.312 -0.479492 c 0
EndSplineSet
EndChar

StartChar: germandbls
Encoding: 223 223 175
Width: 1234
VWidth: 0
GlyphClass: 2
Flags: W
LayerCount: 2
Fore
SplineSet
1181 321 m 0
 1181 97 1007 -23 828 -23 c 0
 721 -23 612 20 538 109 c 1
 575 263 l 1
 639 193 723 159 797 159 c 0
 880 159 949 202 960 287 c 0
 961 298 962 308 962 319 c 0
 962 467 826 573 607 711 c 0
 580 728 563 763 563 800 c 0
 563 836 580 874 622 897 c 0
 724 954 805 977 805 1113 c 0
 805 1128 804 1145 802 1163 c 0
 791 1259 719 1312 636 1312 c 0
 506 1312 434 1220 434 1032 c 2
 434 0 l 1
 192 0 l 1
 192 1044 l 2
 192 1324 389 1480 637 1480 c 0
 894 1480 1034 1343 1044 1164 c 0
 1045 1154 1045 1145 1045 1135 c 0
 1045 960 950 882 810 820 c 0
 796 814 787 794 812 779 c 0
 1016 656 1181 574 1181 321 c 0
EndSplineSet
EndChar

StartChar: grave
Encoding: 96 96 176
Width: 681
VWidth: 0
GlyphClass: 2
Flags: W
LayerCount: 2
Fore
SplineSet
411 1162 m 1
 81 1480 l 1
 354 1480 l 1
 600 1162 l 1
 411 1162 l 1
EndSplineSet
EndChar

StartChar: gravecomb
Encoding: 768 768 177
Width: 1054
VWidth: 0
GlyphClass: 4
Flags: W
LayerCount: 2
Fore
SplineSet
540 1202 m 1
 210 1520 l 1
 483 1520 l 1
 729 1202 l 1
 540 1202 l 1
EndSplineSet
EndChar

StartChar: greater
Encoding: 62 62 178
Width: 1123
VWidth: 0
GlyphClass: 2
Flags: W
LayerCount: 2
Fore
SplineSet
92 1092 m 1
 1041 658 l 1
 1041 531 l 1
 88 78 l 1
 88 279 l 1
 723 591 l 1
 92 890 l 1
 92 1092 l 1
EndSplineSet
EndChar

StartChar: greaterequal
Encoding: 8805 8805 179
Width: 2318
VWidth: 0
GlyphClass: 2
Flags: W
LayerCount: 2
Fore
SplineSet
334 1439 m 1
 1389 883 l 1
 1389 789 l 1
 330 261 l 1
 330 427 l 1
 1180 835 l 1
 334 1275 l 1
 334 1439 l 1
294 15 m 1
 294 159 l 1
 1412 159 l 1
 1412 15 l 1
 294 15 l 1
EndSplineSet
EndChar

StartChar: guillemotleft
Encoding: 171 171 180
Width: 1060
VWidth: 0
GlyphClass: 2
Flags: W
LayerCount: 2
Fore
SplineSet
788 301 m 1
 499 735 l 1
 794 1174 l 1
 981 1174 l 1
 678 735 l 1
 973 301 l 1
 788 301 l 1
391 301 m 1
 82 735 l 1
 397 1174 l 1
 567 1174 l 1
 282 735 l 1
 557 301 l 1
 391 301 l 1
EndSplineSet
EndChar

StartChar: guillemotright
Encoding: 187 187 181
Width: 1091
VWidth: 0
GlyphClass: 2
Flags: W
LayerCount: 2
Fore
SplineSet
274 1174 m 1
 566 737 l 1
 269 301 l 1
 81 301 l 1
 386 737 l 1
 88 1174 l 1
 274 1174 l 1
699 1174 m 1
 1010 737 l 1
 694 301 l 1
 526 301 l 1
 808 737 l 1
 534 1174 l 1
 699 1174 l 1
EndSplineSet
EndChar

StartChar: guilsinglleft
Encoding: 8249 8249 182
Width: 1140
VWidth: 0
GlyphClass: 2
Flags: W
LayerCount: 2
Fore
SplineSet
511 301 m 1
 195 735 l 1
 517 1174 l 1
 703 1174 l 1
 394 735 l 1
 694 301 l 1
 511 301 l 1
EndSplineSet
EndChar

StartChar: guilsinglright
Encoding: 8250 8250 183
Width: 1140
VWidth: 0
GlyphClass: 2
Flags: W
LayerCount: 2
Fore
SplineSet
383 1174 m 1
 701 737 l 1
 376 301 l 1
 191 301 l 1
 499 737 l 1
 201 1174 l 1
 383 1174 l 1
EndSplineSet
EndChar

StartChar: h
Encoding: 104 104 184
Width: 1252
VWidth: 0
GlyphClass: 2
Flags: W
LayerCount: 2
Fore
SplineSet
1199 -16 m 1
 1171 -18 1145 -19 1120 -19 c 0
 877 -19 811 87 811 278 c 2
 811 606 l 2
 811 759 763 858 635 858 c 0
 473 858 382 717 382 503 c 2
 382 0 l 1
 140 0 l 1
 140 1560 l 1
 382 1560 l 1
 382 925 l 1
 468 1027 605 1048 696 1048 c 0
 923 1048 1053 925 1053 658 c 2
 1053 324 l 2
 1053 212 1076 175 1176 175 c 0
 1190 175 1206 176 1223 177 c 1
 1199 -16 l 1
EndSplineSet
EndChar

StartChar: hbar
Encoding: 295 295 185
Width: 1238
VWidth: 0
GlyphClass: 2
Flags: W
LayerCount: 2
Fore
SplineSet
34 1154 m 1
 34 1311 l 1
 769 1311 l 1
 769 1154 l 1
 34 1154 l 1
EndSplineSet
Refer: 184 104 N 1 0 0 1 0 0 2
EndChar

StartChar: hungarumlaut
Encoding: 733 733 186
Width: 1684
VWidth: 0
GlyphClass: 2
Flags: W
LayerCount: 2
Fore
SplineSet
560 1164 m 1
 797 1532 l 1
 1004 1532 l 1
 688 1164 l 1
 560 1164 l 1
254 1164 m 1
 507 1532 l 1
 694 1532 l 1
 392 1164 l 1
 254 1164 l 1
EndSplineSet
EndChar

StartChar: hyphen
Encoding: 45 45 187
Width: 1163
VWidth: 0
GlyphClass: 2
Flags: W
LayerCount: 2
Fore
SplineSet
192 640 m 1
 192 837 l 1
 971 837 l 1
 971 640 l 1
 192 640 l 1
EndSplineSet
EndChar

StartChar: i
Encoding: 105 105 188
Width: 695
VWidth: 0
GlyphClass: 2
Flags: W
LayerCount: 2
Fore
SplineSet
277 1188 m 0
 179 1188 116 1242 116 1334 c 0
 116 1426 179 1480 279 1480 c 0
 376 1480 440 1424 440 1333 c 0
 440 1242 376 1188 277 1188 c 0
613 0 m 1
 583 -2 555 -3 528 -3 c 0
 246 -3 151 112 151 435 c 2
 151 1026 l 1
 393 1026 l 1
 393 439 l 2
 393 258 402 196 608 196 c 2
 633 196 l 1
 613 0 l 1
EndSplineSet
EndChar

StartChar: infinity
Encoding: 8734 8734 195
Width: 2901
VWidth: 0
GlyphClass: 2
Flags: W
LayerCount: 2
Fore
SplineSet
1431 556 m 0
 1591 556 1664 685 1664 864 c 0
 1664 980 1597 1057 1521 1092 c 0
 1491 1105 1460 1112 1425 1112 c 0
 1345 1112 1282 1070 1232 1026 c 0
 1172 974 1120 904 1077 833 c 1
 1133 752 1184 682 1253 626 c 0
 1302 585 1353 556 1431 556 c 0
572 1112 m 0
 421 1112 332 990 332 833 c 0
 332 707 401 620 481 579 c 0
 512 564 544 556 583 556 c 0
 662 556 722 594 771 636 c 0
 831 688 884 759 931 830 c 1
 865 936 790 1041 677 1090 c 0
 645 1104 609 1112 572 1112 c 0
580 415 m 0
 394 415 268 536 210 686 c 0
 189 739 179 798 179 857 c 0
 179 978 238 1071 306 1133 c 1
 371 1195 464 1247 575 1247 c 0
 728 1247 831 1163 911 1073 c 0
 943 1037 974 996 1005 951 c 1
 1084 1065 1172 1177 1305 1226 c 0
 1343 1241 1385 1247 1431 1247 c 0
 1613 1247 1740 1147 1798 1001 c 0
 1818 951 1827 897 1827 838 c 0
 1827 638 1710 504 1574 446 c 0
 1527 426 1479 415 1428 415 c 0
 1349 415 1277 440 1210 489 c 0
 1143 538 1074 612 1004 711 c 1
 925 597 832 487 701 437 c 0
 662 423 622 415 580 415 c 0
EndSplineSet
EndChar

StartChar: integral
Encoding: 8747 8747 196
Width: 1219
VWidth: 0
GlyphClass: 2
Flags: W
LayerCount: 2
Fore
SplineSet
387 -703 m 0
 318 -703 284 -693 228 -678 c 1
 225 -526 l 1
 255 -538 310 -544 354 -544 c 0
 510 -544 536 -449 536 -289 c 2
 536 1239 l 2
 536 1500 620 1680 868 1680 c 0
 932 1680 976 1668 1028 1656 c 1
 1031 1505 l 1
 1000 1517 945 1522 902 1522 c 0
 746 1522 717 1428 717 1268 c 2
 717 -261 l 2
 717 -522 636 -703 387 -703 c 0
EndSplineSet
EndChar

StartChar: j
Encoding: 106 106 199
Width: 665
VWidth: 0
GlyphClass: 2
Flags: W
LayerCount: 2
Fore
SplineSet
122 -499 m 0
 19 -499 -54 -475 -54 -475 c 1
 -33 -305 l 1
 -33 -305 32 -323 100 -323 c 0
 198 -323 250 -280 250 -90 c 2
 250 1026 l 1
 492 1026 l 1
 492 -93 l 2
 492 -325 428 -499 122 -499 c 0
382 1188 m 0
 284 1188 221 1242 221 1334 c 0
 221 1426 284 1480 384 1480 c 0
 481 1480 545 1424 545 1333 c 0
 545 1242 481 1188 382 1188 c 0
EndSplineSet
EndChar

StartChar: k
Encoding: 107 107 201
Width: 1127
VWidth: 0
GlyphClass: 2
Flags: W
LayerCount: 2
Fore
SplineSet
382 0 m 1
 140 0 l 1
 140 1560 l 1
 382 1560 l 1
 382 588 l 1
 811 1026 l 1
 1095 1026 l 1
 618 536 l 1
 1107 0 l 1
 833 0 l 1
 382 482 l 1
 382 0 l 1
EndSplineSet
EndChar

StartChar: k.alt
Encoding: 65543 -1 202
Width: 1171
VWidth: 0
GlyphClass: 2
Flags: W
LayerCount: 2
Fore
SplineSet
1167 195 m 1
 1130 3 l 1
 1090 -12 1049 -23 1009 -23 c 0
 932 -23 856 15 780 123 c 1
 618 362 l 1
 390 42 l 2
 360 -1 317 -20 277 -20 c 0
 217 -20 162 24 162 102 c 2
 162 1470 l 1
 404 1470 l 1
 404 389 l 1
 824 1026 l 1
 1046 965 l 1
 762 539 l 1
 932 290 l 1
 1000 203 1031 176 1075 176 c 0
 1099 176 1127 184 1167 195 c 1
EndSplineSet
EndChar

StartChar: kgreenlandic
Encoding: 312 312 204
Width: 1855
VWidth: 0
GlyphClass: 2
Flags: W
LayerCount: 2
Fore
SplineSet
324 0 m 1
 324 1205 l 1
 517 1205 l 1
 517 654 l 1
 1011 1205 l 1
 1271 1205 l 1
 689 601 l 1
 891 396 1091 204 1315 0 c 1
 1058 0 l 1
 517 553 l 1
 517 0 l 1
 324 0 l 1
EndSplineSet
EndChar

StartChar: l
Encoding: 108 108 205
Width: 701
VWidth: 0
GlyphClass: 2
Flags: W
LayerCount: 2
Fore
SplineSet
650 -6 m 1
 617 -8 586 -9 556 -9 c 0
 265 -9 140 99 140 419 c 2
 140 1560 l 1
 382 1560 l 1
 382 433 l 2
 382 252 426 190 644 190 c 2
 670 190 l 1
 650 -6 l 1
EndSplineSet
EndChar

StartChar: less
Encoding: 60 60 207
Width: 1124
VWidth: 0
GlyphClass: 2
Flags: W
LayerCount: 2
Fore
SplineSet
1034 84 m 1
 85 518 l 1
 85 645 l 1
 1038 1098 l 1
 1038 897 l 1
 403 585 l 1
 1034 286 l 1
 1034 84 l 1
EndSplineSet
EndChar

StartChar: lessequal
Encoding: 8804 8804 208
Width: 2320
VWidth: 0
GlyphClass: 2
Flags: W
LayerCount: 2
Fore
SplineSet
294 15 m 1
 294 159 l 1
 1416 159 l 1
 1416 15 l 1
 294 15 l 1
1382 259 m 1
 336 787 l 1
 336 882 l 1
 1382 1437 l 1
 1382 1272 l 1
 541 838 l 1
 1382 424 l 1
 1382 259 l 1
EndSplineSet
EndChar

StartChar: logicalnot
Encoding: 172 172 209
Width: 1535
VWidth: 0
GlyphClass: 2
Flags: W
LayerCount: 2
Fore
SplineSet
1168 419 m 1
 1168 913 l 1
 189 913 l 1
 189 1077 l 1
 1344 1077 l 1
 1344 419 l 1
 1168 419 l 1
EndSplineSet
EndChar

StartChar: lozenge
Encoding: 9674 9674 210
Width: 2138
VWidth: 0
GlyphClass: 2
Flags: W
LayerCount: 2
Fore
SplineSet
708 -79 m 1
 207 808 l 1
 716 1700 l 1
 829 1700 l 1
 1334 809 l 1
 820 -79 l 1
 708 -79 l 1
764 89 m 1
 887 335 1022 567 1157 808 c 1
 1026 1049 895 1284 775 1528 c 1
 652 1281 517 1050 382 811 c 1
 513 570 642 333 764 89 c 1
EndSplineSet
EndChar

StartChar: lslash
Encoding: 322 322 211
Width: 895
VWidth: 0
GlyphClass: 2
Flags: W
LayerCount: 2
Fore
SplineSet
207 0 m 1
 207 809 l 1
 10 691 l 1
 10 852 l 1
 207 970 l 1
 207 1752 l 1
 401 1752 l 1
 401 1086 l 1
 602 1206 l 1
 602 1045 l 1
 401 925 l 1
 401 0 l 1
 207 0 l 1
EndSplineSet
EndChar

StartChar: m
Encoding: 109 109 212
Width: 1888
VWidth: 0
GlyphClass: 2
Flags: W
LayerCount: 2
Fore
SplineSet
1827 -16 m 1
 1800 -18 1774 -19 1750 -19 c 0
 1461 -19 1437 134 1437 339 c 2
 1437 617 l 2
 1437 770 1395 856 1265 856 c 0
 1154 856 1048 758 1048 574 c 2
 1048 0 l 1
 806 0 l 1
 806 617 l 2
 806 782 762 856 654 856 c 0
 523 856 409 765 409 548 c 2
 409 0 l 1
 167 0 l 1
 167 524 l 2
 167 834 132 1026 132 1026 c 1
 380 1026 l 1
 380 1026 388 988 395 907 c 1
 488 1013 607 1048 709 1048 c 0
 865 1048 932 964 980 862 c 1
 1074 1018 1213 1048 1317 1048 c 0
 1553 1048 1679 890 1679 623 c 2
 1679 357 l 2
 1679 248 1683 174 1809 174 c 0
 1822 174 1836 174 1851 176 c 1
 1827 -16 l 1
EndSplineSet
EndChar

StartChar: macron
Encoding: 175 175 213
Width: 1038
VWidth: 0
GlyphClass: 2
Flags: W
LayerCount: 2
Fore
SplineSet
192 1313 m 1
 192 1470 l 1
 846 1470 l 1
 846 1313 l 1
 192 1313 l 1
EndSplineSet
EndChar

StartChar: minus
Encoding: 8722 8722 214
Width: 1115
VWidth: 0
GlyphClass: 2
Flags: W
LayerCount: 2
Fore
SplineSet
168 640 m 1
 168 837 l 1
 947 837 l 1
 947 640 l 1
 168 640 l 1
EndSplineSet
EndChar

StartChar: multiply
Encoding: 215 215 215
Width: 1254
VWidth: 0
GlyphClass: 2
Flags: W
LayerCount: 2
Fore
SplineSet
300 271 m 1
 179 392 l 1
 517 741 l 1
 179 1090 l 1
 300 1211 l 1
 627 862 l 1
 953 1211 l 1
 1075 1089 l 1
 736 741 l 1
 1075 393 l 1
 953 271 l 1
 627 619 l 1
 300 271 l 1
EndSplineSet
EndChar

StartChar: n
Encoding: 110 110 216
Width: 1285
VWidth: 0
GlyphClass: 2
Flags: W
LayerCount: 2
Fore
SplineSet
1248 176 m 1
 1224 -16 l 1
 1196 -18 1171 -19 1147 -19 c 0
 866 -19 834 120 834 348 c 2
 834 604 l 2
 834 757 788 857 654 857 c 0
 508 857 409 717 409 522 c 2
 409 0 l 1
 167 0 l 1
 167 524 l 2
 167 834 132 1026 132 1026 c 1
 380 1026 l 1
 380 1026 388 987 395 906 c 1
 473 1002 580 1048 728 1048 c 0
 957 1048 1076 914 1076 647 c 2
 1076 345 l 2
 1076 246 1082 174 1206 174 c 0
 1219 174 1233 174 1248 176 c 1
EndSplineSet
EndChar

StartChar: nine
Encoding: 57 57 219
Width: 1282
VWidth: 0
GlyphClass: 2
Flags: W
LayerCount: 2
Fore
SplineSet
1047 0 m 1
 828 0 l 1
 828 637 l 1
 773 593 707 562 631 552 c 0
 610 549 588 548 568 548 c 0
 340 548 160 718 160 973 c 0
 160 1276 379 1471 621 1480 c 1
 645 1480 l 2
 843 1480 985 1386 1047 1349 c 1
 1047 1079 l 1
 1047 1076 l 1
 1047 0 l 1
648 748 m 0
 772 778 829 894 829 1073 c 2
 829 1235 l 1
 811 1242 737 1292 653 1292 c 0
 648 1292 642 1291 637 1291 c 0
 483 1279 397 1138 397 982 c 0
 397 836 469 740 587 740 c 0
 606 740 627 743 648 748 c 0
EndSplineSet
EndChar

StartChar: nine.alt
Encoding: 65545 -1 220
Width: 1254
VWidth: 0
GlyphClass: 2
Flags: W
LayerCount: 2
Fore
SplineSet
656 714 m 0
 781 714 911 812 911 1009 c 0
 911 1191 780 1272 652 1272 c 0
 525 1272 388 1193 388 1011 c 0
 388 815 527 714 656 714 c 0
597 -119 m 1
 411 -6 l 1
 709 529 l 1
 698 523 675 523 623 523 c 0
 367 523 151 731 151 997 c 0
 151 1326 413 1480 643 1480 c 0
 874 1480 1130 1321 1130 992 c 0
 1130 867 1035 649 952 511 c 1
 597 -119 l 1
EndSplineSet
EndChar

StartChar: notequal
Encoding: 8800 8800 221
Width: 2318
VWidth: 0
GlyphClass: 2
Flags: W
LayerCount: 2
Fore
SplineSet
630 81 m 1
 498 102 l 1
 636 408 l 1
 303 408 l 1
 293 550 l 1
 702 550 l 1
 858 882 l 1
 303 882 l 1
 292 1024 l 1
 918 1024 l 1
 1062 1346 l 1
 1196 1324 l 1
 1060 1024 l 1
 1411 1024 l 1
 1423 882 l 1
 998 882 l 1
 841 550 l 1
 1412 550 l 1
 1423 408 l 1
 780 408 l 1
 630 81 l 1
EndSplineSet
EndChar

StartChar: numbersign
Encoding: 35 35 223
Width: 1501
VWidth: 0
GlyphClass: 2
Flags: W
LayerCount: 2
Fore
SplineSet
591 579 m 1
 871 579 l 1
 925 903 l 1
 649 903 l 1
 591 579 l 1
332 0 m 1
 415 432 l 1
 124 432 l 1
 137 579 l 1
 440 579 l 1
 494 903 l 1
 200 903 l 1
 216 1048 l 1
 516 1048 l 1
 590 1456 l 1
 745 1456 l 1
 673 1048 l 1
 950 1048 l 1
 1021 1456 l 1
 1181 1456 l 1
 1103 1048 l 1
 1382 1048 l 1
 1365 903 l 1
 1079 903 l 1
 1024 579 l 1
 1308 579 l 1
 1291 432 l 1
 1001 432 l 1
 924 0 l 1
 771 0 l 1
 844 432 l 1
 568 432 l 1
 492 0 l 1
 332 0 l 1
EndSplineSet
EndChar

StartChar: o
Encoding: 111 111 224
Width: 1206
VWidth: 0
GlyphClass: 2
Flags: W
LayerCount: 2
Fore
SplineSet
601 -22 m 0
 296 -22 100 195 100 512 c 0
 100 830 295 1048 600 1048 c 0
 909 1048 1106 832 1106 513 c 0
 1106 196 911 -22 601 -22 c 0
603 164 m 0
 773 164 858 299 858 512 c 0
 858 725 772 862 601 862 c 0
 430 862 348 725 348 512 c 0
 348 299 431 164 603 164 c 0
EndSplineSet
EndChar

StartChar: oe
Encoding: 339 339 229
Width: 3363
VWidth: 0
GlyphClass: 2
Flags: W
LayerCount: 2
Fore
SplineSet
1293 698 m 1
 1910 698 l 1
 1910 915 1817 1060 1621 1060 c 0
 1467 1060 1367 958 1321 835 c 1
 1306 791 1297 745 1293 698 c 1
752 112 m 0
 991 112 1096 321 1096 584 c 0
 1096 858 991 1060 743 1060 c 0
 553 1060 443 925 399 762 c 0
 383 704 376 643 376 579 c 0
 376 368 453 219 584 150 c 0
 631 125 688 112 752 112 c 0
741 -49 m 0
 470 -49 293 112 213 335 c 0
 186 412 172 494 172 581 c 0
 172 877 319 1079 514 1170 c 1
 584 1204 664 1220 752 1220 c 0
 975 1220 1104 1116 1192 948 c 1
 1272 1115 1402 1220 1615 1220 c 0
 1946 1220 2113 964 2113 600 c 2
 2113 538 l 1
 1293 536 l 1
 1293 513 l 1
 1298 332 1373 201 1501 142 c 0
 1546 122 1597 112 1655 112 c 0
 1835 112 1964 209 2038 327 c 1
 2141 225 l 1
 2048 57 1884 -49 1642 -49 c 0
 1411 -49 1257 57 1186 229 c 1
 1115 51 965 -49 741 -49 c 0
EndSplineSet
EndChar

StartChar: ogonek
Encoding: 731 731 230
Width: 904
VWidth: 0
GlyphClass: 2
Flags: W
LayerCount: 2
Fore
SplineSet
452 -458 m 0
 341 -458 215 -400 215 -283 c 0
 215 -178 288 -48 468 14 c 1
 619 0 l 1
 407 -70 381 -215 381 -234 c 0
 381 -294 418 -329 478 -329 c 0
 554 -329 566 -315 619 -294 c 1
 619 -424 l 1
 566 -446 527 -458 452 -458 c 0
EndSplineSet
EndChar

StartChar: one
Encoding: 49 49 234
Width: 1282
VWidth: 0
GlyphClass: 2
Flags: W
LayerCount: 2
Fore
SplineSet
516 0 m 1
 516 1456 l 1
 766 1456 l 1
 766 0 l 1
 516 0 l 1
EndSplineSet
EndChar

StartChar: one.alt
Encoding: 65546 -1 235
Width: 999
VWidth: 0
GlyphClass: 2
Flags: W
LayerCount: 2
Fore
SplineSet
471 0 m 1
 471 1241 l 1
 405 1190 301 1143 195 1099 c 1
 135 1270 l 1
 251 1322 410 1405 477 1456 c 1
 721 1456 l 1
 721 0 l 1
 471 0 l 1
EndSplineSet
EndChar

StartChar: onehalf
Encoding: 189 189 236
Width: 2109
VWidth: 0
GlyphClass: 2
Flags: W
LayerCount: 2
Fore
SplineSet
1363 0 m 1
 1363 129 l 1
 1721 496 l 2
 1778 554 1802 612 1802 661 c 0
 1802 743 1734 802 1646 802 c 0
 1558 802 1476 770 1410 670 c 1
 1319 762 l 1
 1400 880 1510 936 1645 936 c 0
 1828 936 1948 821 1948 674 c 0
 1948 590 1909 496 1820 406 c 2
 1555 138 l 1
 1941 138 l 1
 1941 0 l 1
 1363 0 l 1
338 1520 m 1
 475 1520 l 1
 475 694 l 1
 604 694 l 1
 604 572 l 1
 172 572 l 1
 172 698 l 1
 321 698 l 1
 320 1376 l 1
 159 1298 l 1
 159 1424 l 1
 221 1454 281 1486 338 1520 c 1
432 0 m 1
 1405 1520 l 1
 1563 1520 l 1
 594 0 l 1
 432 0 l 1
EndSplineSet
EndChar

StartChar: onequarter
Encoding: 188 188 237
Width: 1855
VWidth: 0
GlyphClass: 2
Flags: W
LayerCount: 2
Fore
SplineSet
1232 347 m 1
 1497 347 l 1
 1497 769 l 1
 1232 347 l 1
1497 0 m 1
 1497 221 l 1
 1097 221 l 1
 1097 328 l 1
 1485 936 l 1
 1637 936 l 1
 1637 347 l 1
 1775 347 l 1
 1776 221 l 1
 1634 221 l 1
 1634 0 l 1
 1497 0 l 1
265 1520 m 1
 402 1520 l 1
 402 694 l 1
 531 694 l 1
 531 572 l 1
 99 572 l 1
 99 698 l 1
 248 698 l 1
 247 1376 l 1
 86 1298 l 1
 86 1424 l 1
 147.333333333 1454.66666667 207 1486.66666667 265 1520 c 1
359 0 m 1
 1332 1520 l 1
 1490 1520 l 1
 521 0 l 1
 359 0 l 1
EndSplineSet
EndChar

StartChar: ordfeminine
Encoding: 170 170 238
Width: 1013
VWidth: 0
GlyphClass: 2
Flags: W
LayerCount: 2
Fore
SplineSet
475 757 m 0
 613 757 678 864 685 1008 c 1
 685 1037 l 1
 566 1011 323 1044 323 881 c 0
 323 790 391 757 475 757 c 0
453 636 m 0
 326 636 229 690 185 779 c 0
 170 809 163 842 163 879 c 0
 163 1039 308 1112 445 1134 c 0
 524 1146 606 1144 685 1156 c 1
 685 1166 l 2
 685 1295 644 1342 528 1342 c 0
 423 1342 347 1308 295 1231 c 1
 216 1319 l 1
 276 1420 393 1468 534 1468 c 0
 711 1468 841 1378 841 1184 c 1
 839 807 l 2
 839 755 841 728 847 657 c 1
 693 657 l 1
 686 743 l 1
 639 679 559 636 453 636 c 0
EndSplineSet
EndChar

StartChar: ordmasculine
Encoding: 186 186 239
Width: 1176
VWidth: 0
GlyphClass: 2
Flags: W
LayerCount: 2
Fore
SplineSet
590 773 m 0
 739 773 832 896 832 1061 c 0
 832 1231 740 1354 587 1354 c 0
 436 1354 346 1231 346 1065 c 0
 346 894 434 773 590 773 c 0
590 647 m 0
 343 647 182 805 182 1066 c 0
 182 1328 343 1480 590 1480 c 0
 842 1480 994 1295 994 1062 c 0
 994 798 831 647 590 647 c 0
EndSplineSet
EndChar

StartChar: oslash
Encoding: 248 248 240
Width: 2136
VWidth: 0
GlyphClass: 2
Flags: W
LayerCount: 2
Fore
SplineSet
397 -191 m 1
 292 -153 l 1
 840 1233 l 1
 961 1196 l 1
 397 -191 l 1
EndSplineSet
Refer: 224 111 N 1 0 0 1 10 0 2
EndChar

StartChar: p
Encoding: 112 112 242
Width: 1202
VWidth: 0
GlyphClass: 2
Flags: W
LayerCount: 2
Fore
SplineSet
167 -574 m 1
 167 524 l 2
 167 834 132 1026 132 1026 c 1
 374 1026 l 1
 374 1026 385 980 393 895 c 1
 451 1002 543 1048 684 1048 c 0
 858 1048 1102 936 1102 557 c 0
 1102 204 904 -22 583 -22 c 0
 519 -22 460 -11 409 2 c 1
 409 -574 l 1
 167 -574 l 1
409 179 m 1
 446 171 497 164 547 164 c 0
 754 164 858 305 858 555 c 0
 858 750 777 862 647 862 c 0
 516 862 409 759 409 520 c 2
 409 179 l 1
EndSplineSet
EndChar

StartChar: paragraph
Encoding: 182 182 243
Width: 1245
VWidth: 0
GlyphClass: 2
Flags: W
LayerCount: 2
Fore
SplineSet
494 -139 m 1
 494 748 l 1
 257 748 115 879 115 1102 c 0
 115 1412 407 1457 687 1457 c 2
 1141 1457 l 1
 1141 1311 l 1
 1019 1311 l 1
 1019 -139 l 1
 867 -139 l 1
 867 1311 l 1
 646 1311 l 1
 646 -139 l 1
 494 -139 l 1
EndSplineSet
EndChar

StartChar: parenleft
Encoding: 40 40 244
Width: 703
VWidth: 0
GlyphClass: 2
Flags: W
LayerCount: 2
Fore
SplineSet
619 1564 m 1
 445 1192 361 985 361 678 c 0
 361 361 453 145 630 -244 c 1
 403 -244 l 1
 196 143 89 359 89 675 c 0
 89 983 189 1192 392 1564 c 1
 619 1564 l 1
EndSplineSet
EndChar

StartChar: parenright
Encoding: 41 41 245
Width: 704
VWidth: 0
GlyphClass: 2
Flags: W
LayerCount: 2
Fore
SplineSet
86 -244 m 1
 260 128 344 335 344 642 c 0
 344 959 252 1175 75 1564 c 1
 302 1564 l 1
 509 1177 616 961 616 645 c 0
 616 337 516 128 313 -244 c 1
 86 -244 l 1
EndSplineSet
EndChar

StartChar: partialdiff
Encoding: 8706 8706 246
Width: 1993
VWidth: 0
GlyphClass: 2
Flags: W
LayerCount: 2
Fore
SplineSet
612 116 m 0
 742 116 830 209 888 304 c 0
 958 419 1008 581 1028 755 c 1
 991 860 926 945 834 986 c 0
 803 1000 770 1006 733 1006 c 0
 611 1006 521 931 463 848 c 0
 401 759 355 628 355 476 c 0
 355 315 408 195 506 142 c 0
 537 125 572 116 612 116 c 0
711 1786 m 0
 1109 1786 1250 1415 1250 986 c 0
 1250 703 1186 464 1082 282 c 0
 1011 157 921 57 800 -1 c 0
 743 -29 679 -42 610 -42 c 0
 324 -42 156 175 156 479 c 0
 156 786 309 1008 501 1109 c 0
 566 1144 634 1163 709 1163 c 0
 867 1163 970 1075 1048 968 c 1
 1048 991 1049 1031 1049 1056 c 0
 1049 1305 980 1504 836 1590 c 0
 791 1616 743 1629 686 1629 c 0
 566 1629 470 1572 396 1517 c 1
 385 1679 l 1
 464 1738 582 1786 711 1786 c 0
EndSplineSet
EndChar

StartChar: percent
Encoding: 37 37 247
Width: 2307
VWidth: 0
GlyphClass: 2
Flags: W
LayerCount: 2
Fore
SplineSet
574 0 m 1
 1546 1470 l 1
 1748 1470 l 1
 785 0 l 1
 574 0 l 1
1805 -22 m 0
 1527 -22 1391 183 1391 422 c 0
 1391 703 1568 872 1811 872 c 0
 2078 872 2223 692 2223 427 c 0
 2223 147 2047 -22 1805 -22 c 0
1813 134 m 0
 1968 134 2037 269 2037 428 c 0
 2037 600 1959 717 1814 717 c 0
 1656 717 1587 584 1587 424 c 0
 1587 263 1655 134 1813 134 c 0
507 737 m 0
 662 737 731 872 731 1031 c 0
 731 1203 653 1320 508 1320 c 0
 350 1320 281 1187 281 1027 c 0
 281 866 349 737 507 737 c 0
499 581 m 0
 221 581 85 786 85 1025 c 0
 85 1306 262 1475 505 1475 c 0
 772 1475 917 1295 917 1030 c 0
 917 750 741 581 499 581 c 0
EndSplineSet
EndChar

StartChar: period
Encoding: 46 46 248
Width: 699
VWidth: 0
GlyphClass: 2
Flags: W
LayerCount: 2
Fore
SplineSet
350 -12 m 0
 254 -12 185 54 185 149 c 0
 185 241 254 306 350 306 c 0
 446 306 515 241 515 146 c 0
 515 52 446 -12 350 -12 c 0
EndSplineSet
EndChar

StartChar: periodcentered
Encoding: 183 183 249
Width: 639
VWidth: 0
GlyphClass: 2
Flags: W
LayerCount: 2
Fore
SplineSet
192 1025 m 1
 192 1272 l 1
 447 1272 l 1
 447 1025 l 1
 192 1025 l 1
EndSplineSet
EndChar

StartChar: perthousand
Encoding: 8240 8240 250
Width: 4109
VWidth: 0
GlyphClass: 2
Flags: W
LayerCount: 2
Fore
SplineSet
2279 85 m 0
 2420 85 2483 213 2483 368 c 0
 2483 525 2420 650 2278 650 c 0
 2136 650 2072 526 2072 370 c 0
 2072 210 2136 85 2279 85 c 0
1410 85 m 0
 1549 85 1615 214 1615 368 c 0
 1615 528 1553 650 1410 650 c 0
 1268 650 1204 526 1204 370 c 0
 1204 210 1267 85 1410 85 c 0
310 1271 m 0
 310 1111 379 986 539 986 c 0
 693 986 762 1115 762 1268 c 0
 762 1426 692 1551 535 1551 c 0
 381 1551 310 1425 310 1271 c 0
520 -40 m 1
 341 -40 l 1
 1419 1670 l 1
 1577 1670 l 1
 520 -40 l 1
2275 -47 m 0
 2042 -47 1902 115 1902 370 c 0
 1902 564 1992 694 2125 752 c 1
 2169 774 2222 784 2280 784 c 0
 2517 784 2652 624 2652 366 c 0
 2652 173 2559 42 2427 -15 c 1
 2383 -37 2333 -47 2275 -47 c 0
1407 -47 m 0
 1174 -47 1033 115 1033 370 c 0
 1033 564 1123 694 1256 752 c 1
 1300 774 1353 784 1411 784 c 0
 1647 784 1783 622 1783 366 c 0
 1783 172 1692 43 1560 -15 c 1
 1515 -37 1465 -47 1407 -47 c 0
535 853 m 0
 279 853 139 1015 139 1270 c 0
 139 1464 230 1594 368 1651 c 1
 417 1673 473 1683 537 1683 c 0
 795 1683 933 1525 933 1266 c 0
 933 1074 840 941 702 884 c 1
 653 862 597 853 535 853 c 0
EndSplineSet
EndChar

StartChar: pi
Encoding: 960 960 251
Width: 2201
VWidth: 0
GlyphClass: 2
Flags: W
LayerCount: 2
Fore
SplineSet
1201 -14 m 0
 998 -14 955 117 955 322 c 2
 955 1060 l 1
 561 1060 l 1
 538 722 519 389 449 99 c 0
 438 55 426 20 412 -4 c 1
 222 -4 l 1
 293 119 320 304 341 478 c 0
 364 661 374 862 379 1060 c 1
 247 1057 150 1037 60 989 c 1
 40 1143 l 1
 133 1214 287 1217 444 1217 c 2
 1369 1217 l 1
 1369 1060 l 1
 1129 1060 l 1
 1140 334 l 1
 1140 238 1158 168 1256 168 c 0
 1285 168 1316 173 1350 183 c 1
 1348 148 l 2
 1347 137 1347 125 1347 113 c 0
 1347 72 1350 37 1362 3 c 1
 1309 -6 1256 -14 1201 -14 c 0
EndSplineSet
EndChar

StartChar: plus
Encoding: 43 43 252
Width: 1426
VWidth: 0
GlyphClass: 2
Flags: W
LayerCount: 2
Fore
SplineSet
621 135 m 1
 621 611 l 1
 188 611 l 1
 188 795 l 1
 623 795 l 1
 623 1272 l 1
 817 1272 l 1
 817 795 l 1
 1238 795 l 1
 1238 611 l 1
 815 611 l 1
 815 135 l 1
 621 135 l 1
EndSplineSet
EndChar

StartChar: plusminus
Encoding: 177 177 253
Width: 1544
VWidth: 0
GlyphClass: 2
Flags: W
LayerCount: 2
Fore
SplineSet
190 0 m 1
 190 163 l 1
 1354 163 l 1
 1354 0 l 1
 190 0 l 1
686 322 m 1
 686 759 l 1
 190 759 l 1
 190 921 l 1
 684 921 l 1
 684 1359 l 1
 847 1359 l 1
 847 921 l 1
 1349 921 l 1
 1349 759 l 1
 852 759 l 1
 852 322 l 1
 686 322 l 1
EndSplineSet
EndChar

StartChar: product
Encoding: 8719 8719 254
Width: 2673
VWidth: 0
GlyphClass: 2
Flags: W
LayerCount: 2
Fore
SplineSet
369 -580 m 1
 369 1307 l 1
 222 1307 l 1
 204 1477 l 1
 1687 1477 l 1
 1668 1307 l 1
 1536 1307 l 1
 1536 -580 l 1
 1334 -580 l 1
 1334 1307 l 1
 567 1307 l 1
 567 -580 l 1
 369 -580 l 1
EndSplineSet
EndChar

StartChar: q
Encoding: 113 113 255
Width: 1266
VWidth: 0
GlyphClass: 2
Flags: W
LayerCount: 2
Fore
SplineSet
561 164 m 0
 709 164 818 336 818 529 c 2
 818 838 l 1
 782 852 712 862 659 862 c 0
 490 862 354 709 354 454 c 0
 354 302 450 164 561 164 c 0
1089 -552 m 1
 1048 -568 1012 -575 980 -575 c 0
 874 -575 818 -497 818 -391 c 2
 818 107 l 1
 750 14 628 -22 532 -22 c 0
 288 -22 106 183 106 444 c 0
 106 790 325 1048 658 1048 c 0
 785 1048 964 998 1060 942 c 1
 1060 -357 l 1
 1322 -226 l 1
 1371 -405 l 1
 1089 -552 l 1
EndSplineSet
EndChar

StartChar: question
Encoding: 63 63 256
Width: 1007
VWidth: 0
GlyphClass: 2
Flags: W
LayerCount: 2
Fore
SplineSet
315 423 m 1
 315 887 579 963 579 1109 c 0
 579 1212 499 1252 405 1252 c 0
 339 1252 248 1233 174 1205 c 1
 143 1416 l 1
 246 1459 359 1480 459 1480 c 0
 672 1480 856 1377 856 1137 c 0
 856 781 486 776 429 423 c 1
 315 423 l 1
375 -12 m 0
 279 -12 210 54 210 149 c 0
 210 241 279 306 375 306 c 0
 471 306 540 241 540 146 c 0
 540 52 471 -12 375 -12 c 0
EndSplineSet
EndChar

StartChar: quotedbl
Encoding: 34 34 258
Width: 923
VWidth: 0
GlyphClass: 2
Flags: W
LayerCount: 2
Fore
SplineSet
224 884 m 1
 182 1456 l 1
 403 1456 l 1
 373 884 l 1
 224 884 l 1
562 884 m 1
 520 1456 l 1
 741 1456 l 1
 711 884 l 1
 562 884 l 1
EndSplineSet
EndChar

StartChar: quotedblbase
Encoding: 8222 8222 259
Width: 1786
VWidth: 0
GlyphClass: 2
Flags: W
LayerCount: 2
Fore
SplineSet
728 -419 m 1
 841 96 l 1
 1056 96 l 1
 875 -419 l 1
 728 -419 l 1
324 -419 m 1
 447 96 l 1
 651 96 l 1
 481 -419 l 1
 324 -419 l 1
EndSplineSet
EndChar

StartChar: quotedblleft
Encoding: 8220 8220 260
Width: 1787
VWidth: 0
GlyphClass: 2
Flags: W
LayerCount: 2
Fore
SplineSet
775 963 m 1
 947 1480 l 1
 1103 1480 l 1
 981 963 l 1
 775 963 l 1
382 963 m 1
 562 1480 l 1
 709 1480 l 1
 595 963 l 1
 382 963 l 1
EndSplineSet
EndChar

StartChar: quotedblright
Encoding: 8221 8221 261
Width: 1789
VWidth: 0
GlyphClass: 2
Flags: W
LayerCount: 2
Fore
SplineSet
845 937 m 1
 960 1454 l 1
 1173 1454 l 1
 993 937 l 1
 845 937 l 1
475 937 m 1
 597 1454 l 1
 803 1454 l 1
 631 937 l 1
 475 937 l 1
EndSplineSet
EndChar

StartChar: quoteleft
Encoding: 8216 8216 262
Width: 984
VWidth: 0
GlyphClass: 2
Flags: W
LayerCount: 2
Fore
SplineSet
575 1456 m 1
 453 939 l 1
 239 939 l 1
 420 1456 l 1
 575 1456 l 1
EndSplineSet
EndChar

StartChar: quoteright
Encoding: 8217 8217 263
Width: 984
VWidth: 0
GlyphClass: 2
Flags: W
LayerCount: 2
Fore
SplineSet
257 939 m 1
 380 1456 l 1
 592 1456 l 1
 412 939 l 1
 257 939 l 1
EndSplineSet
EndChar

StartChar: quotesinglbase
Encoding: 8218 8218 264
Width: 984
VWidth: 0
GlyphClass: 2
Flags: W
LayerCount: 2
Fore
SplineSet
230 -419 m 1
 355 96 l 1
 567 96 l 1
 386 -419 l 1
 230 -419 l 1
EndSplineSet
EndChar

StartChar: quotesingle
Encoding: 39 39 265
Width: 584
VWidth: 0
GlyphClass: 2
Flags: W
LayerCount: 2
Fore
SplineSet
181 908 m 1
 181 1480 l 1
 402 1480 l 1
 330 908 l 1
 181 908 l 1
EndSplineSet
EndChar

StartChar: r
Encoding: 114 114 266
Width: 848
VWidth: 0
GlyphClass: 2
Flags: W
LayerCount: 2
Fore
SplineSet
167 0 m 1
 167 524 l 2
 167 834 132 1026 132 1026 c 1
 380 1026 l 1
 380 1026 387 986 395 902 c 1
 464 996 569 1044 655 1044 c 0
 735 1044 776 1027 788 1022 c 1
 770 815 l 1
 726 826 689 831 654 831 c 0
 483 831 409 648 409 566 c 2
 409 553 l 1
 409 0 l 1
 167 0 l 1
EndSplineSet
EndChar

StartChar: radical
Encoding: 8730 8730 267
Width: 2242
VWidth: 0
GlyphClass: 2
Flags: W
LayerCount: 2
Fore
SplineSet
742 -269 m 1
 388 721 l 1
 186 688 l 1
 163 819 l 1
 500 879 l 1
 742 162 l 1
 804 -41 l 1
 846 165 l 1
 1251 1784 l 1
 1403 1784 l 1
 886 -269 l 1
 742 -269 l 1
EndSplineSet
EndChar

StartChar: registered
Encoding: 174 174 270
Width: 2098
VWidth: 0
GlyphClass: 2
Flags: W
LayerCount: 2
Fore
SplineSet
872 819 m 1
 1005 819 l 2
 1151 819 1299 821 1299 980 c 0
 1299 1157 1166 1158 1003 1158 c 2
 871 1158 l 1
 872 819 l 1
1053 0 m 0
 1279 0 1446 93 1564 217 c 1
 1680 337 1770 510 1770 751 c 0
 1770 985 1678 1166 1563 1286 c 0
 1445 1410 1267 1504 1048 1504 c 0
 829 1504 655 1411 537 1288 c 0
 421 1167 328 987 328 754 c 0
 328 518 421 337 537 217 c 1
 656 92 833 0 1053 0 c 0
1053 -138 m 0
 786 -138 586 -22 444 125 c 0
 345 228 261 360 213 518 c 0
 191 593 179 671 179 752 c 0
 179 1035 309 1237 446 1379 c 0
 588 1526 784 1642 1048 1642 c 0
 1315 1642 1512 1524 1653 1377 c 0
 1751 1274 1837 1144 1885 985 c 0
 1907 910 1919 832 1919 751 c 0
 1919 469 1790 267 1653 125 c 1
 1513 -22 1317 -138 1053 -138 c 0
718 221 m 1
 718 1299 l 1
 1007 1299 l 2
 1162 1299 1277 1274 1352 1222 c 0
 1427 1170 1464 1095 1464 998 c 0
 1464 810 1337 722 1183 700 c 1
 1264 615 1326 505 1390 391 c 0
 1419 340 1450 285 1484 221 c 1
 1306 221 l 1
 1175 469 l 2
 1131 554 1085 634 1020 680 c 1
 875 680 l 1
 875 221 l 1
 718 221 l 1
EndSplineSet
EndChar

StartChar: ring
Encoding: 730 730 271
Width: 1075
VWidth: 0
GlyphClass: 2
Flags: W
LayerCount: 2
Fore
SplineSet
526 1129 m 0
 365 1129 278 1243 278 1351 c 0
 278 1508 419 1576 525 1576 c 0
 683 1576 771 1461 771 1353 c 0
 771 1199 627 1129 526 1129 c 0
523 1229 m 0
 594 1229 654 1282 654 1353 c 0
 654 1425 596 1476 523 1476 c 0
 452 1476 394 1424 394 1353 c 0
 394 1277 447 1229 523 1229 c 0
EndSplineSet
EndChar

StartChar: s
Encoding: 115 115 272
Width: 941
VWidth: 0
GlyphClass: 2
Flags: W
LayerCount: 2
Fore
SplineSet
491 -22 m 0
 339 -22 198 36 137 69 c 1
 189 246 l 1
 309 193 409 167 482 167 c 0
 566 167 615 202 621 275 c 1
 621 283 l 2
 621 463 130 414 130 733 c 0
 130 740 131 747 131 754 c 0
 139 882 221 1048 478 1048 c 0
 659 1048 777 988 804 973 c 1
 748 810 l 1
 657 848 571 868 503 868 c 0
 415 868 358 834 358 765 c 0
 358 593 845 655 845 297 c 0
 845 101 724 -22 491 -22 c 0
EndSplineSet
EndChar

StartChar: section
Encoding: 167 167 277
Width: 1215
VWidth: 0
GlyphClass: 2
Flags: W
LayerCount: 2
Fore
SplineSet
651 501 m 1
 713 539 787 586 787 660 c 0
 787 771 638 791 560 831 c 1
 502 802 431 758 431 676 c 0
 431 562 545 541 651 501 c 1
1015 143 m 0
 1015 -82 811 -182 569 -182 c 0
 451 -182 323 -158 206 -113 c 1
 204 106 l 1
 326 63 436 45 526 45 c 0
 660 45 749 84 768 133 c 0
 772 144 774 154 774 163 c 0
 774 232 664 261 559 302 c 1
 320 398 172 443 172 657 c 0
 172 797 290 865 400 912 c 1
 293 967 217 1045 217 1183 c 0
 217 1397 441 1480 670 1480 c 0
 775 1480 848 1461 943 1436 c 1
 943 1236 l 1
 869 1266 773 1283 687 1283 c 0
 572 1283 476 1253 470 1187 c 1
 470 1176 l 2
 470 1097 544 1062 609 1037 c 0
 862 941 1043 872 1043 665 c 0
 1043 525 923 453 818 399 c 1
 925 353 1015 278 1015 143 c 0
EndSplineSet
EndChar

StartChar: semicolon
Encoding: 59 59 278
Width: 627
VWidth: 0
GlyphClass: 2
Flags: W
LayerCount: 2
Fore
SplineSet
136 -297 m 1
 226 255 l 1
 481 255 l 1
 290 -297 l 1
 136 -297 l 1
226 779 m 1
 226 1026 l 1
 481 1026 l 1
 481 779 l 1
 226 779 l 1
EndSplineSet
EndChar

StartChar: seven
Encoding: 55 55 279
Width: 1282
VWidth: 0
GlyphClass: 2
Flags: W
LayerCount: 2
Fore
SplineSet
418 0 m 1
 887 1257 l 1
 230 1257 l 1
 230 1456 l 1
 1138 1456 l 1
 1138 1275 l 1
 676 0 l 1
 418 0 l 1
EndSplineSet
EndChar

StartChar: six
Encoding: 54 54 280
Width: 1282
VWidth: 0
GlyphClass: 2
Flags: W
LayerCount: 2
Fore
SplineSet
678 180 m 0
 805 180 933 272 933 453 c 0
 933 649 814 736 685 736 c 0
 558 736 421 653 421 455 c 0
 421 273 550 180 678 180 c 0
685 -24 m 0
 439 -24 174 134 174 537 c 0
 174 955 332 1370 900 1530 c 1
 976 1328 l 1
 695 1242 519 1098 451 832 c 1
 528 904 626 939 725 939 c 2
 729 939 l 1
 947 937 1166 769 1166 468 c 0
 1166 140 915 -24 685 -24 c 0
EndSplineSet
EndChar

StartChar: slash
Encoding: 47 47 281
Width: 942
VWidth: 0
GlyphClass: 2
Flags: W
LayerCount: 2
Fore
SplineSet
77 0 m 1
 672 1470 l 1
 864 1470 l 1
 277 0 l 1
 77 0 l 1
EndSplineSet
EndChar

StartChar: sterling
Encoding: 163 163 283
Width: 1310
VWidth: 0
GlyphClass: 2
Flags: W
LayerCount: 2
Fore
SplineSet
182 0 m 1
 180 142 l 1
 286 204 367 367 367 540 c 2
 367 675 l 1
 180 675 l 1
 180 820 l 1
 367 820 l 1
 367 880 l 2
 367 1237 472 1480 807 1480 c 0
 941 1480 1052 1440 1131 1378 c 1
 1061 1200 l 1
 991 1243 909 1272 836 1272 c 0
 715 1272 615 1194 615 969 c 2
 615 820 l 1
 953 820 l 1
 953 675 l 1
 617 675 l 1
 617 595 l 2
 617 391 580 234 477 177 c 1
 1130 177 l 1
 1130 0 l 1
 182 0 l 1
EndSplineSet
EndChar

StartChar: summation
Encoding: 8721 8721 284
Width: 2149
VWidth: 0
GlyphClass: 2
Flags: W
LayerCount: 2
Fore
SplineSet
111 -580 m 1
 111 -474 l 1
 812 455 l 1
 136 1367 l 1
 136 1477 l 1
 1338 1477 l 1
 1338 1311 l 1
 418 1311 l 1
 1026 465 l 1
 385 -406 l 1
 1391 -406 l 1
 1391 -580 l 1
 111 -580 l 1
EndSplineSet
EndChar

StartChar: t
Encoding: 116 116 285
Width: 897
VWidth: 0
GlyphClass: 2
Flags: W
LayerCount: 2
Fore
SplineSet
17 862 m 1
 17 1026 l 1
 220 1026 l 1
 220 1419 l 1
 462 1419 l 1
 462 1026 l 1
 765 1026 l 1
 765 862 l 1
 462 862 l 1
 462 431 l 2
 462 251 496 193 773 193 c 2
 810 193 l 1
 790 -4 l 1
 749 -6 711 -7 676 -7 c 0
 328 -7 220 101 220 421 c 2
 220 862 l 1
 17 862 l 1
EndSplineSet
EndChar

StartChar: thorn
Encoding: 254 254 286
Width: 2116
VWidth: 0
GlyphClass: 2
Flags: W
LayerCount: 2
Fore
SplineSet
822 -123 m 0
 1062 -123 1161 97 1161 361 c 0
 1161 624 1068 826 829 826 c 0
 576 826 482 609 482 329 c 0
 482 126 551 -22 676 -89 c 0
 718 -111 767 -123 822 -123 c 0
848 983 m 0
 1182 983 1367 718 1367 368 c 0
 1367 83 1248 -126 1066 -224 c 1
 1004 -259 932 -278 848 -278 c 0
 695 -278 573 -216 482 -92 c 1
 482 -752 l 1
 289 -752 l 1
 289 1458 l 1
 485 1458 l 1
 485 785 l 1
 564 902 677 983 848 983 c 0
EndSplineSet
EndChar

StartChar: three
Encoding: 51 51 287
Width: 1282
VWidth: 0
GlyphClass: 2
Flags: W
LayerCount: 2
Fore
SplineSet
627 -24 m 0
 446 -24 320 17 184 112 c 1
 276 288 l 1
 396 210 508 184 623 184 c 0
 767 184 867 279 867 410 c 0
 867 619 714 652 540 652 c 2
 435 652 l 1
 435 848 l 1
 526 848 l 2
 645 848 823 872 823 1060 c 0
 823 1207 712 1272 597 1272 c 0
 498 1272 367 1242 283 1160 c 1
 171 1317 l 1
 300 1437 447 1480 602 1480 c 0
 836 1480 1060 1358 1060 1090 c 0
 1060 894 927 795 834 768 c 1
 931 749 1103 658 1103 407 c 0
 1103 132 884 -24 627 -24 c 0
EndSplineSet
EndChar

StartChar: threequarters
Encoding: 190 190 288
Width: 1985
VWidth: 0
GlyphClass: 2
Flags: W
LayerCount: 2
Fore
SplineSet
650 1266 m 0
 650 1162 568 1089 476 1070 c 1
 596 1041 668 957 671 837 c 1
 671 826 l 2
 671 634 524 550 365 550 c 0
 267 550 165 582 89 639 c 1
 142 741 l 1
 201 697 284 667 359 667 c 0
 453 667 534 714 534 841 c 0
 534 972 426 1008 307 1008 c 2
 247 1008 l 1
 247 1127 l 1
 299 1127 l 2
 406 1127 508 1145 508 1263 c 0
 508 1368 440 1404 360 1404 c 0
 275 1404 177 1363 137 1322 c 1
 82 1419 l 1
 143 1477 260 1519 373 1519 c 0
 516 1519 650 1452 650 1266 c 0
1359 347 m 1
 1624 347 l 1
 1624 769 l 1
 1359 347 l 1
1624 0 m 1
 1624 221 l 1
 1224 221 l 1
 1224 328 l 1
 1612 936 l 1
 1764 936 l 1
 1764 347 l 1
 1902 347 l 1
 1903 221 l 1
 1761 221 l 1
 1761 0 l 1
 1624 0 l 1
486 0 m 1
 1459 1520 l 1
 1617 1520 l 1
 648 0 l 1
 486 0 l 1
EndSplineSet
EndChar

StartChar: tilde
Encoding: 732 732 289
Width: 1151
VWidth: 0
GlyphClass: 2
Flags: W
LayerCount: 2
Fore
SplineSet
233 1182 m 1
 244 1318 321 1429 466 1429 c 0
 548 1429 608 1386 669 1362 c 0
 690 1353 713 1349 734 1349 c 0
 796 1349 828 1395 836 1455 c 1
 963 1455 l 1
 948 1322 879 1202 734 1202 c 0
 630 1202 566 1282 463 1282 c 0
 399 1282 365 1248 356 1182 c 1
 233 1182 l 1
EndSplineSet
EndChar

StartChar: trademark
Encoding: 8482 8482 290
Width: 3165
VWidth: 0
GlyphClass: 2
Flags: W
LayerCount: 2
Fore
SplineSet
426 1208 m 1
 426 1988 l 1
 133 1988 l 1
 133 2107 l 1
 832 2107 l 1
 832 1988 l 1
 557 1988 l 1
 557 1208 l 1
 426 1208 l 1
951 1208 m 1
 951 2107 l 1
 1153 2107 l 1
 1403 1459 l 1
 1672 2107 l 1
 1882 2107 l 1
 1882 1208 l 1
 1739 1208 l 1
 1739 1907 l 1
 1439 1208 l 1
 1354 1208 l 1
 1080 1906 l 1
 1080 1208 l 1
 951 1208 l 1
EndSplineSet
EndChar

StartChar: two
Encoding: 50 50 291
Width: 1282
VWidth: 0
GlyphClass: 2
Flags: W
LayerCount: 2
Fore
SplineSet
627 1480 m 0
 858 1480 1087 1336 1087 1027 c 0
 1087 863 976 709 830 543 c 2
 529 200 l 1
 1074 200 l 1
 1074 0 l 1
 222 0 l 1
 222 192 l 1
 667 685 l 2
 784 815 838 940 838 1041 c 0
 838 1178 743 1272 606 1272 c 0
 504 1272 407 1215 317 1112 c 1
 161 1246 l 1
 275 1404 462 1480 627 1480 c 0
EndSplineSet
EndChar

StartChar: u
Encoding: 117 117 292
Width: 1219
VWidth: 0
GlyphClass: 2
Flags: W
LayerCount: 2
Fore
SplineSet
497 -22 m 0
 273 -22 138 129 138 354 c 2
 138 524 l 2
 138 834 116 1026 116 1026 c 1
 364 1026 l 1
 364 1026 380 880 380 553 c 2
 380 377 l 2
 380 251 439 172 547 165 c 0
 555 164 562 164 569 164 c 0
 694 164 776 237 776 409 c 2
 776 1026 l 1
 1018 1026 l 1
 1018 360 l 2
 1018 244 1028 176 1177 176 c 1
 1145 -16 l 1
 983 -16 872 -1 818 151 c 1
 770 50 655 -22 497 -22 c 0
EndSplineSet
EndChar

StartChar: underscore
Encoding: 95 95 301
Width: 1333
VWidth: 0
GlyphClass: 2
Flags: W
LayerCount: 2
Fore
SplineSet
192 -152 m 1
 192 -24 l 1
 1141 -24 l 1
 1141 -152 l 1
 192 -152 l 1
EndSplineSet
EndChar

StartChar: uni00B2
Encoding: 178 178 304
Width: 956
VWidth: 0
GlyphClass: 2
Flags: W
LayerCount: 2
Fore
SplineSet
201 532 m 1
 201 661 l 1
 559 1028 l 2
 616 1086 640 1144 640 1193 c 0
 640 1275 572 1334 484 1334 c 0
 396 1334 314 1302 248 1202 c 1
 157 1294 l 1
 238 1412 348 1468 483 1468 c 0
 666 1468 786 1353 786 1206 c 0
 786 1122 747 1028 658 938 c 2
 393 670 l 1
 779 670 l 1
 779 532 l 1
 201 532 l 1
EndSplineSet
EndChar

StartChar: uni00B3
Encoding: 179 179 305
Width: 928
VWidth: 0
GlyphClass: 2
Flags: W
LayerCount: 2
Fore
SplineSet
431 476 m 0
 305 476 209 523 142 590 c 1
 212 702 l 1
 278 642 349 611 425 611 c 0
 535 611 630 663 630 771 c 0
 630 902 510 928 378 928 c 2
 312 928 l 1
 312 1067 l 1
 370 1067 l 2
 489 1067 601 1091 601 1209 c 0
 601 1304 530 1340 435 1340 c 0
 339 1340 268 1295 210 1249 c 1
 142 1361 l 1
 206 1425 316 1480 438 1480 c 0
 578 1480 681 1418 730 1327 c 0
 748 1294 757 1256 757 1212 c 0
 757 1108 704 1039 631 1000 c 1
 719 961 782 888 782 768 c 0
 782 620 681 532 566 496 c 0
 524 483 478 476 431 476 c 0
EndSplineSet
EndChar

StartChar: uni00B9
Encoding: 185 185 306
Width: 765
VWidth: 0
GlyphClass: 2
Flags: W
LayerCount: 2
Fore
SplineSet
354 1520 m 1
 491 1520 l 1
 491 694 l 1
 620 694 l 1
 620 572 l 1
 188 572 l 1
 188 698 l 1
 337 698 l 1
 336 1376 l 1
 175 1298 l 1
 175 1424 l 1
 236.333333333 1454.66666667 296 1486.66666667 354 1520 c 1
EndSplineSet
EndChar

StartChar: uni0311
Encoding: 785 785 333
Width: 1106
VWidth: 0
GlyphClass: 2
Flags: W
LayerCount: 2
Fore
SplineSet
235 1231 m 1
 250 1419 368 1509 563 1509 c 0
 753 1509 872 1412 887 1231 c 1
 785 1231 l 1
 762 1330 670 1383 555 1383 c 0
 440 1383 354 1335 337 1231 c 1
 235 1231 l 1
EndSplineSet
EndChar

StartChar: uni03A9
Encoding: 937 937 334
Width: 2716
VWidth: 0
GlyphClass: 2
Flags: W
LayerCount: 2
Fore
SplineSet
186 0 m 1
 173 163 l 1
 559 161 l 1
 411 282 283 452 227 679 c 0
 208 752 198 830 198 911 c 0
 198 1167 295 1359 429 1487 c 1
 550 1613 729 1702 955 1702 c 0
 1185 1702 1360 1606 1476 1472 c 1
 1601 1342 1688 1150 1688 906 c 0
 1688 729 1636 585 1571 467 c 1
 1503 347 1414 242 1322 161 c 1
 1691 163 l 1
 1680 0 l 1
 1109 0 l 1
 1104 142 l 1
 1263 260 1392 431 1450 658 c 1
 1470 730 1480 807 1480 885 c 0
 1480 1179 1363 1387 1182 1484 c 0
 1116 1519 1038 1537 950 1537 c 0
 686 1537 521 1371 448 1153 c 0
 422 1073 408 986 408 891 c 0
 408 624 508 424 628 282 c 0
 674 229 723 182 778 142 c 1
 782 0 l 1
 186 0 l 1
EndSplineSet
EndChar

StartChar: uni03BC
Encoding: 956 956 335
Width: 2153
VWidth: 0
GlyphClass: 2
Flags: W
LayerCount: 2
Fore
SplineSet
287 -356 m 1
 287 1086 l 1
 480 1086 l 1
 480 350 l 2
 480 132 567 9 781 9 c 0
 958 9 1065 111 1110 245 c 0
 1125 292 1133 341 1133 393 c 2
 1133 1086 l 1
 1327 1086 l 1
 1327 170 l 2
 1327 64 1328 -20 1336 -119 c 1
 1137 -119 l 1
 1133 40 l 1
 1043 -83 911 -145 737 -145 c 0
 630 -145 547 -123 480 -83 c 1
 480 -356 l 1
 287 -356 l 1
EndSplineSet
EndChar

StartChar: uni2074
Encoding: 8308 8308 336
Width: 1564
VWidth: 0
GlyphClass: 2
Flags: W
LayerCount: 2
Fore
SplineSet
572 891 m 1
 833 891 l 1
 833 1283 l 1
 572 891 l 1
833 545 m 1
 833 766 l 1
 408 766 l 1
 408 872 l 1
 820 1480 l 1
 973 1480 l 1
 973 891 l 1
 1100 891 l 1
 1112 766 l 1
 970 766 l 1
 970 545 l 1
 833 545 l 1
EndSplineSet
EndChar

StartChar: uniF6C3
Encoding: 65549 -1 337
Width: 1065
VWidth: 0
GlyphClass: 2
Flags: W
LayerCount: 2
Fore
SplineSet
303 -612 m 1
 428 -69 l 1
 647 -69 l 1
 456 -612 l 1
 303 -612 l 1
EndSplineSet
EndChar

StartChar: uniFB01
Encoding: 64257 64257 338
Width: 2132
VWidth: 0
GlyphClass: 2
Flags: W
LayerCount: 2
Fore
SplineSet
1066 1535 m 1
 1066 1717 l 1
 1246 1717 l 1
 1246 1535 l 1
 1066 1535 l 1
326 0 m 1
 326 1079 l 1
 89 1079 l 1
 89 1205 l 1
 326 1205 l 1
 327 1336 l 1
 330 1594 414 1778 676 1778 c 0
 740 1778 784 1765 836 1754 c 1
 838 1601 l 1
 808 1613 752 1619 709 1619 c 0
 551 1619 520 1523 520 1365 c 2
 519 1205 l 1
 1251 1205 l 1
 1251 0 l 1
 1057 0 l 1
 1057 1079 l 1
 519 1079 l 1
 519 0 l 1
 326 0 l 1
EndSplineSet
EndChar

StartChar: uniFB02
Encoding: 64258 64258 339
Width: 2360
VWidth: 0
GlyphClass: 2
Flags: W
LayerCount: 2
Fore
SplineSet
1331 -277 m 0
 1104 -277 989 -116 989 89 c 2
 989 1493 l 1
 1166 1528 l 1
 1181 79 l 1
 1181 -54 1264 -118 1372 -118 c 0
 1427 -118 1498 -102 1555 -84 c 1
 1585 -235 l 1
 1490 -264 1394 -277 1331 -277 c 0
147 -791 m 1
 122 -649 l 1
 263 -615 337 -491 337 -304 c 2
 337 815 l 1
 99 815 l 1
 99 941 l 1
 337 941 l 1
 337 1110 l 2
 337 1407 429 1535 643 1535 c 0
 701 1535 763 1522 832 1496 c 1
 805 1371 l 1
 766 1381 727 1391 689 1391 c 0
 564 1391 511 1315 511 1137 c 2
 511 941 l 1
 775 941 l 1
 775 815 l 1
 511 815 l 1
 511 -277 l 2
 511 -570 419 -754 147 -791 c 1
EndSplineSet
EndChar

StartChar: v
Encoding: 118 118 343
Width: 1026
VWidth: 0
GlyphClass: 2
Flags: W
LayerCount: 2
Fore
SplineSet
430 0 m 1
 12 1026 l 1
 265 1026 l 1
 353 792 438 557 528 325 c 1
 607 558 686 792 765 1026 c 1
 1014 1026 l 1
 632 0 l 1
 430 0 l 1
EndSplineSet
EndChar

StartChar: w
Encoding: 119 119 344
Width: 1596
VWidth: 0
GlyphClass: 2
Flags: W
LayerCount: 2
Fore
SplineSet
402 0 m 1
 13 1026 l 1
 260 1026 l 1
 340 792 419 557 501 325 c 1
 578 544 646 772 719 995 c 1
 876 995 l 1
 956 772 1035 548 1115 325 c 1
 1194 558 1272 792 1350 1026 c 1
 1584 1026 l 1
 1218 0 l 1
 1024 0 l 1
 805 582 l 1
 602 0 l 1
 402 0 l 1
EndSplineSet
EndChar

StartChar: x
Encoding: 120 120 345
Width: 1067
VWidth: 0
GlyphClass: 2
Flags: W
LayerCount: 2
Fore
SplineSet
7 0 m 1
 401 535 l 1
 52 1026 l 1
 337 1026 l 1
 556 697 l 1
 765 1026 l 1
 1044 1026 l 1
 680 520 l 1
 1061 0 l 1
 758 0 l 1
 520 361 l 1
 273 0 l 1
 7 0 l 1
EndSplineSet
EndChar

StartChar: y
Encoding: 121 121 346
Width: 1180
VWidth: 0
GlyphClass: 2
Flags: W
LayerCount: 2
Fore
SplineSet
497 0 m 0
 273 0 138 151 138 376 c 2
 138 524 l 2
 138 834 116 1026 116 1026 c 1
 364 1026 l 1
 364 1026 380 880 380 553 c 2
 380 399 l 2
 380 273 439 194 547 187 c 0
 555 186 562 186 569 186 c 0
 694 186 776 259 776 431 c 2
 776 1026 l 1
 1018 1026 l 1
 1018 416 l 1
 1019 417 l 1
 1019 -16 l 2
 1019 -385 833 -574 523 -574 c 0
 412 -574 286 -550 146 -501 c 1
 173 -298 l 1
 260 -342 377 -379 485 -379 c 0
 640 -379 777 -303 777 -62 c 2
 777 111 l 1
 717 44 620 0 497 0 c 0
EndSplineSet
EndChar

StartChar: yen
Encoding: 165 165 349
Width: 1547
VWidth: 0
GlyphClass: 2
Flags: W
LayerCount: 2
Fore
SplineSet
1278 283 m 1
 273 283 l 1
 273 422 l 1
 682 422 l 1
 682 608 l 1
 266 608 l 1
 266 750 l 1
 1274 750 l 1
 1274 608 l 1
 871 608 l 1
 871 422 l 1
 1278 422 l 1
 1278 283 l 1
EndSplineSet
Refer: 80 89 N 1 0 0 1 164 0 2
EndChar

StartChar: z
Encoding: 122 122 350
Width: 957
VWidth: 0
GlyphClass: 2
Flags: W
LayerCount: 2
Fore
SplineSet
111 0 m 1
 111 155 l 1
 589 856 l 1
 117 856 l 1
 117 1026 l 1
 877 1026 l 1
 877 873 l 1
 407 170 l 1
 899 170 l 1
 899 0 l 1
 111 0 l 1
EndSplineSet
EndChar

StartChar: zero
Encoding: 48 48 354
Width: 1282
VWidth: 0
GlyphClass: 2
Flags: W
LayerCount: 2
Fore
SplineSet
640 -24 m 0
 293 -24 107 290 107 728 c 0
 107 1172 293 1480 640 1480 c 0
 989 1480 1175 1172 1175 728 c 0
 1175 290 989 -24 640 -24 c 0
639 184 m 0
 834 184 937 413 937 731 c 0
 937 1055 834 1272 639 1272 c 0
 441 1272 345 1055 345 731 c 0
 345 413 441 184 639 184 c 0
EndSplineSet
EndChar
